<?xml version="1.0" encoding="utf-8"?>
<!-- Generator: Adobe Illustrator 22.0.0, SVG Export Plug-In . SVG Version: 6.00 Build 0)  -->
<svg version="1.1" id="图层_1" xmlns="http://www.w3.org/2000/svg" xmlns:xlink="http://www.w3.org/1999/xlink" x="0px" y="0px"
	 viewBox="0 0 300 137" style="enable-background:new 0 0 300 137;" xml:space="preserve">
<style type="text/css">
	.st0{fill:#DBDBDB;}
</style>
<g>
	<path class="st0" d="M23.1,62.1c0,0.7,0.6,1.2,0.2,2.1c-0.3,0.8,0,1.8-0.1,2.7c-0.1,0.6,0.2,1.4-0.5,1.9c-0.1,0.1-0.3,0.2-0.4,0.1
		c-0.4-0.3-0.8-0.5-1.1-0.8c-0.2-0.2-0.3-0.6-0.4-0.9c-0.1-0.3-0.7-0.4-1.1-0.2c-0.3,0.2-0.5,0.6-0.6,0.9c-0.1,0.3,0,0.7,0,1.1
		c0,0.4,0,0.7-0.3,1c-0.1,0.1-0.1,0.4-0.1,0.6c0,1.4,0,2.9,0,4.3c0,0.2,0.2,0.5,0.2,0.7c0.1,0.2,0.1,0.3,0.2,0.5c0,1.2,0,2.5,0,3.7
		c0,0.2-0.1,0.4-0.2,0.5c-0.3,0.4-0.3,0.9,0,1.3c0.1,0.1,0.2,0.3,0.2,0.5c0,0.8,0,1.6,0,2.3c0,0.5-0.1,0.9-0.3,1.4
		c-0.2,0.7-0.3,1.6,0.2,2.4c0.4,0.7,1.1,0.9,1.6,1.4c0.3,0.3,1.1,0.1,1.6-0.2c0.7-0.4,0.8-1,0.8-1.7c-0.1-1.5,0-2.9,0-4.4
		c0-0.2,0.1-0.5,0.2-0.5c0.2,0,0.5,0.1,0.7,0.2c0.1,0.1,0.2,0.3,0.2,0.4c0,1.2,0,2.4,0,3.6c0,0.6-0.2,1.1-0.3,1.7
		c0,0.2,0,0.5,0.1,0.6c0.3,0.5,0.1,0.9,0,1.4c-0.2,0.7-0.2,1.3,0.1,2c0.1,0.3,0.1,0.6,0.2,1c0,0.6,0.6,1.2,1.2,1.3
		c0.4,0,0.8,0,1.2,0c0.4,0,0.5-0.2,0.5-0.6c0-0.4,0.2-0.7,0.3-1.1c0-0.2,0.1-0.3,0.1-0.5c0.1-0.5,0.1-0.9,0.1-1.4c0-0.1,0-0.1,0-0.2
		c-0.1-0.8-0.1-1.7-0.2-2.5c0-0.1,0-0.1,0-0.2c-0.7-1.2-0.4-2.5-0.3-3.7c0-1.3,0.5-2.5,0.3-3.9c0-0.3-0.2-0.5-0.2-0.8
		c-0.1-0.2-0.2-0.4-0.2-0.6c0-0.8,0-1.5,0-2.3c0-0.1,0-0.3,0.1-0.4c0.6-0.7,0.2-1.6,0.3-2.3c-0.8-1.5-0.2-3.2-0.4-4.8
		c0-0.1,0-0.2,0.1-0.2c0.4-0.3,0.3-0.8,0.3-1.2c0-1.4,0-2.8,0-4.3c0-0.3-0.2-0.6-0.3-0.8c0-0.1-0.1-0.3,0-0.4c0.3-0.5,0.3-1.5,0-2
		c-0.3-0.4-0.3-1,0-1.4c0.4-0.6,0.4-1.1,0.1-1.5c0.1-0.6,0.2-1,0.2-1.5s0-1.1,0-1.6c0-0.1,0-0.3-0.1-0.4c-0.5-0.6-0.3-1.1,0-1.7
		c0.2-0.4,0.1-0.9,0.1-1.4c0-0.2,0-0.4,0.1-0.5c0.4-0.6,0.6-0.6,1.1,0c0.3,0.4,0.4,0.9,0.4,1.3c0,0.7,0.1,1.3,0,2s0.4,1.2,0.7,1.8
		c0,0.1,0.2,0.2,0.2,0.3c0.1,0.8,0.9,0.9,1.4,1.3c0.2-0.3,0.6-0.5,0.7-0.8c0.8-3.8,0.3-7.7,0.4-11.6c0-0.7,0.3-1.1,0.9-1.3
		c0.3-0.1,0.5-0.1,0.6,0.3c0.1,0.6,0.5,0.8,1.1,0.9c1.1,0.1,2.1-0.3,3.1-0.7c0.6-0.2,1.2-0.4,1.8-0.5c0.1,0,0.1,0,0.2,0
		c1.4-0.7,3-0.3,4.5-0.3c0.4,0,0.9,0.2,1.3,0.4c0.5,0.2,0.9,1.1,0.7,1.7c-0.1,0.3-0.1,0.6-0.1,0.9c0,0.4-0.2,0.6-0.4,0.9
		c-0.5,0.6-1.2,0.9-1.9,1.2c-0.4,0.2-1,0.1-1.4,0.1c-0.3,0-0.5,0.2-0.7,0.2c-0.1,0-0.3,0-0.4,0c-0.1,0-0.2-0.2-0.3-0.2
		c-1.6,0.1-3.2-0.7-4.8-0.4c-0.3,0.1-0.6,0.3-0.9,0.5c-0.2,0.2-0.4,0.4-0.5,0.6c-0.6,0.6-0.5,1.4,0.2,1.9c0.4,0.3,0.9,0.4,1.4,0.3
		c0.5,0,1,0,1.5,0c0.3,0,0.5-0.2,0.8-0.2c0.4,0,0.7-0.1,1.1,0c0.3,0,0.5,0.2,0.8,0.2c0.5,0,1.1,0,1.6,0c0.4,0,0.8,0,1.1,0.3
		c0,0,0.1,0.1,0.2,0.1c1.1,0,1.8,0.7,2.4,1.4c0.6,0.6,0.6,2.1,0,2.7c-0.2,0.2-0.4,0.3-0.7,0.3c-0.5,0.1-1,0-1.5,0.3
		c-0.3,0.2-0.9,0.1-1.3,0.1c-0.3,0-0.7,0-1,0c-0.4,0-0.9,0.1-1.2-0.2c-0.1-0.1-0.4,0-0.5,0c-0.6,0.3-1.2,0.4-1.8,0
		c-0.1-0.1-0.3-0.1-0.4-0.1c-0.7,0-1.4,0-2.1,0c-0.4,0-0.6,0.2-0.8,0.5c-0.2,0.4-0.4,0.7-0.9,0.8S33.6,59,34,59.3
		c0.4,0.2,0.9,0.5,1.3,0.6c1.2,0.3,2.3-0.2,3.5,0c0.1,0,0.2-0.1,0.3-0.1c0.6-0.5,1.2-0.2,1.6,0.5c0.5,0.8,0.9,1.6,1.3,2.4
		c0.1,0.2,0.2,0.5,0.3,0.8s0.3,0.6,0.3,0.9c0.1,0.5,0.4,1,0.2,1.6c-0.1,0.1-0.1,0.3-0.1,0.5c0,0.6-0.3,0.9-0.9,1
		c-0.3,0-0.7-0.1-1-0.1s-0.5,0-0.8,0.1c-0.6,0.1-1.1,0.3-1.7-0.1c-0.1-0.1-0.4-0.1-0.5-0.1c-0.4,0-0.9,0.1-1.3,0
		c-0.6-0.1-1.1,0.2-1.5,0.6c-0.4,0.3-0.7,0.6-1.1,0.9c-0.1,0.1-0.3,0-0.4-0.1c-0.4-0.3-0.7-0.7-1-1c-0.1-0.1-0.1-0.3-0.2-0.5
		c0-0.4,0-0.8,0-1.2c0-0.8-0.4-0.9-1.1-0.7c-0.3,0.1-0.6,0.3-0.9,0.6c-0.2,0.2-0.4,0.6-0.6,0.9c-0.1,0.2-0.1,0.4,0,0.7
		c0.1,0.6-0.3,1-0.6,1.5c-0.2,0.4-0.3,1.4,0,1.7c0.1,0.1,0.2,0.3,0.2,0.5c0,0.5,0,1.1,0,1.6c0,0.3,0.2,0.5,0.3,0.8
		c0,0.3,0.1,0.7-0.1,1c-0.2,0.5-0.2,1.4,0.1,1.8c0.2,0.3,0.2,0.5-0.1,0.8c-0.1,0.1-0.2,0.4-0.2,0.6c0,1,0,1.9,0,2.9
		c0,0.4,0,0.8,0.3,1.1c0.1,0.1,0,0.3-0.1,0.4c-0.3,0.4-0.3,0.9-0.1,1.4c0.1,0.2,0.1,0.4,0,0.6c-0.2,0.3-0.2,0.6,0.1,0.8
		c0.1,0.1,0.2,0.2,0.2,0.3c0,0.6-0.1,1.1,0.4,1.6c0.1,0,0,0.3-0.1,0.5c-0.4,0.6-0.4,1.3,0,1.8c0.1,0.1,0.1,0.2,0.1,0.4
		c0,0.4,0,0.9,0,1.3c-0.1,0.9,0.4,1.5,1,1.8c0.4,0.2,1.1,0.1,1.7,0c0.1,0,0.3-0.5,0.3-0.7c0-1.3,0-2.5,0-3.8c0-0.3,0.2-0.7,0.2-1
		c0-0.1,0.1-0.3,0-0.4c-0.6-0.6-0.3-1.3-0.1-2c0.1-0.5,0.2-1,0.2-1.5c0-0.1-0.2-0.3-0.3-0.4c0.4-0.4,0.4-0.9,0.2-1.5
		c-0.1-0.3,0.1-0.7,0.1-1c0-0.4,0.1-0.9-0.3-1.2C33,79.1,33,78.8,33,78.7c0-0.5,0-1.1,0-1.6c0-0.3,0.1-0.6,0.3-0.9
		c0.2-0.3,0.2-0.6-0.1-0.8c-0.3-0.3-0.3-1.2,0-1.6c0.1-0.1,0.2-0.2,0.2-0.3c-0.1-0.7,0.4-1.2,0.7-1.7c0-0.1,0.1-0.1,0.1-0.2
		C34.1,70.9,34.6,71,35,71c1.7,0,3.4,0,5.1-0.1c0.2,0,0.4,0,0.6-0.1c0.9-0.6,1.8-0.3,2.7-0.1c0.7,0.2,1.4,0.3,2,0.6
		c0.7,0.3,1.3,0.6,1.8,1.3c0.1,0.1,0.1,0.3,0.1,0.4c0,0.3,0,0.6,0,0.9c0.1,0.6-0.1,1-0.5,1.3c-0.3,0.3-0.8,0.5-1.1,0.9
		c-0.5,0.5-1.1,0.4-1.6,0.4c-0.3,0-0.6-0.2-0.8-0.3s-0.4-0.1-0.6-0.1c-1.3,0-2.6,0-3.9,0c-0.2,0-0.5-0.1-0.7-0.3
		c-0.3-0.2-1.1-0.2-1.5,0.1c-0.6,0.4-1.3,0.9-1.7,1.5c-0.3,0.5-0.4,1-0.5,1.5c0,0.1,0.2,0.4,0.4,0.5c1.1,0.6,2.3,0.4,3.5,0.3
		c0.7-0.1,1.4,0.1,2.2,0.1c0.4,0,0.9,0.1,1.2-0.3c0.1-0.1,0.4-0.1,0.5-0.1c0.5,0,1.1-0.1,1.6,0c0.4,0.1,0.9,0.3,1.2,0.6
		c0.4,0.3,0.7,0.7,1.3,0.6c0.1,0,0.2,0.1,0.3,0.1c0.3,0.3,0.6,0.5,0.8,0.8s0.3,0.7,0.4,1.1c0.1,0.3,0.2,0.6,0.3,0.9
		c0,0.1,0.1,0.2,0.1,0.3c-0.1,0.7,0.2,1.4-0.3,2c-0.1,0.2-0.1,0.4-0.1,0.7c0,0.7,0,1.4,0,2.1c0,0.3,0.2,0.5,0.2,0.8
		c0.1,0.8,0.3,1.6,0.3,2.5c0,0.8,0.3,1.4,0.9,1.9c0.3,0.3,0.5,0.6,0.8,1c0.4,0.5,0.8,0.5,1.3,0c0.3-0.4,0.5-0.7,0.5-1.3
		c0-0.3,0.2-0.6,0.2-0.9c0-0.2,0-0.4,0-0.6c0-0.2-0.2-0.5-0.2-0.7c0-1.5,0-2.9,0-4.4c0-0.6-0.1-1.1-0.1-1.7c0-0.4,0.1-0.7,0.3-1.1
		c0.2-0.5,0.2-1.2,0-1.8c-0.3-0.8-0.2-1.5,0.5-2c0.4-0.3,0.7-0.7,1.3-0.5h0.1c0.5-0.6,1.2-0.3,1.8-0.4c0.8,0,1.7,0,2.5,0
		c0.3,0,0.6,0.1,0.9,0.1c0.2,0,0.4,0,0.6-0.1c0.4-0.1,0.7-0.2,1,0.2c0.1,0.1,0.3,0.1,0.4,0.1c0.4,0,0.8,0,1.1,0
		c0.9,0,1.7-0.9,1.6-1.8c0-0.6,0.4-1.1,1-1.1c0.4,0,0.9-0.1,1.3,0.3c0.1,0.1,0.2,0.1,0.3,0.1c1,0,2,0.2,2.9-0.1
		c1.2-0.4,2.4-0.2,3.6-0.3c0.6,0,1.1,0,1.7,0c0.7,0,1.4,0.7,1.8,1.3c0.4,0.5,0.2,1,0.3,1.5c0.1,0.6-0.1,0.9-0.7,1.2
		c-0.5,0.3-0.9,0.6-1.3,0.9c-0.2,0.1-0.4,0.2-0.6,0.3c-0.1,0-0.2,0-0.3,0.1c-0.4,0.5-1,0.3-1.6,0.4c-0.4,0-0.8,0.1-1.2,0.2
		c-0.1,0-0.1,0-0.2,0c-0.9-0.4-1.8-0.2-2.8-0.2c-0.4,0-0.7,0.3-1.1,0.6s-0.9,0.3-1.2,0c-0.9-1-2.1-1.1-3.4-0.9
		c-0.3,0-0.5,0.4-0.8,0.7c-0.1,0.1-0.1,0.3-0.2,0.3c-0.6,0.2-0.6,0.7-0.5,1.2c0,1.4,0.1,2.9,0,4.3c0,0.9-0.2,1.8-0.4,2.6
		c-0.1,0.3-0.3,0.6-0.4,0.9c-0.2,0.7,0.2,1.2,0.5,1.7c0.2,0.4,0.3,0.8,0.3,1.2s-0.1,0.7,0.3,1c0.2,0.2,0.1,1.2-0.1,1.5
		c-0.4,0.4-0.2,0.8,0,1.3c0.2,0.4,0.1,1,0.1,1.5c0,0.2-0.2,0.3-0.2,0.5c-0.1,0.4-0.4,0.8-0.8,0.7c-0.3,0-0.5-0.4-0.7-0.7
		c-0.3-0.4-0.5-0.9-0.7-1.4c-0.1-0.1-0.1-0.2-0.1-0.3c-0.1-1-0.9-1.8-1.9-1.9c-0.1,0-0.2-0.1-0.3-0.1c-0.5-0.1-0.9-0.2-1.3,0.3
		c-0.2,0.3-0.5,0.5-0.7,0.8c-0.5,0.7-0.5,1.2,0,1.9c0.2,0.2,0.2,0.6,0.4,0.7c0.4,0.3,0.9,0.5,1.4,0.9c0.3,0.2,0.6,0.5,0.8,0.8
		s0.5,0.6,0.7,1c0.3,0.6,0.6,1.2,0.9,1.8c0.4,0.9,0.5,1.8,0.5,2.7c0,1.1-0.4,1.9-1,2.8c-0.4,0.6-0.7,1.1-1.3,1.5
		c-0.4,0.2-0.8,0.5-1.2,0.6c-1,0.3-2.2-0.7-2.2-1.6c0.1-1.4,0-2.8,0-4.2c0-0.3-0.2-0.5-0.2-0.8c-0.1-0.4-0.2-0.8-0.2-1.2
		c0-0.7-0.4-1.1-0.7-1.6c-0.1-0.1-0.2-0.2-0.2-0.3c0.1-0.6,0-1.2-0.4-1.8c-0.1-0.1-0.1-0.2-0.2-0.3c-0.1-0.2-0.2-0.4-0.2-0.6
		c-0.1-0.3-0.2-0.7-0.3-1.1c0-0.1-0.1-0.2-0.1-0.3c0-0.5-0.2-1-0.3-1.5c-0.2-0.7-0.7-1-1.2-1.4s-1.1-0.6-1.8-0.6
		c-0.9,0-1.3,0.5-1.3,1.4c0,0.4,0,0.8,0,1.1s0.2,0.6,0.3,0.9c0.2,0.5,0.4,0.9,0.6,1.4c0.3,0.6,0.6,1.2,0.9,1.8
		c0.3,0.5,0.7,1,0.7,1.7c0.1,0.6,0.3,1.2,0.5,1.8c0.4,1.3,0.3,2.6,0.3,4c0,0.3,0,0.5,0,0.8c0.1,0.6-0.2,1.1-0.5,1.6
		c-0.2,0.2-0.3,0.6-0.3,0.8c0,0.4-0.1,0.7-0.4,1c-0.7,0.6-1.4,1.3-2,2c0,0-0.1,0.1-0.2,0.1c-0.7,0.2-1.5,0.3-2.2,0.5
		c-0.1,0-0.3-0.1-0.4-0.2c-0.2-0.1-0.4-0.1-0.6-0.2c-0.3-0.1-0.6-0.2-0.8-0.3c-0.1,0-0.3-0.1-0.4-0.1c-0.6,0-0.8-0.3-1-0.8
		c-0.2-0.3-0.3-0.6-0.5-0.8c-0.7-0.5-0.8-1.3-1.1-1.9c-0.3-0.6-0.5-1.2-0.7-1.8c0-0.1-0.1-0.3-0.1-0.4c0-0.1,0-0.3,0-0.4
		c-0.4-1.5,0-3,0-4.6c0-0.5,0-0.9,0-1.4c0-0.9-0.1-1.7,0.3-2.6c0.5-1.1,0.8-2.2,1.2-3.4c0.2-0.8,0.1-1.5-0.4-2.1
		c-0.1-0.1-0.2-0.2-0.4-0.2c-0.1,0-0.3,0-0.4,0c-1.7-0.1-2.2,0.3-3,1.8c-0.2,0.4-0.3,0.8-0.3,1.3c0,0.1,0,0.2,0,0.2
		c-0.3,0.5-0.2,1,0,1.6c0.1,0.1,0,0.3-0.1,0.4c-0.3,0.6-0.5,1.2-0.8,1.8c-0.7,1.7-0.2,3.3-0.3,5c0,0.5,0.3,1,0.4,1.5
		c0.2,1.2-0.5,2.1-1.3,2.8c-0.6,0.5-2,0.2-2.7-0.4c-0.6-0.6-1-1.3-1.3-2.1c-0.2-0.5-0.3-1-0.3-1.5c0-0.1,0-0.2,0-0.2
		c-0.6-0.8-0.3-1.7-0.4-2.5c0-0.2,0.1-0.3,0.2-0.5c0-0.1,0.1-0.2,0.2-0.3c0.2-0.6,0.3-1.2,0.5-1.8c0.1-0.4,0.2-0.7,0.5-1
		c0.7-0.7,0.8-1.5,0.7-2.4c0-0.3,0-0.7,0-1c0-0.8-0.4-1.2-1.2-1.2c-0.7-0.1-1.4,0-1.8,0.6c-0.3,0.4-0.7,1-0.6,1.5
		c0.1,1.1-0.4,1.9-1,2.7s-0.8,1.8-0.7,2.8c0,0.4,0,0.8,0,1.2c0,1.9-0.1,3.8,0.4,5.7c0.2,0.6,0.3,1.2,0.5,1.8
		c0.1,0.3,0.4,0.7,0.7,0.9c0.7,0.5,1.6,0.9,2.3,1.4c0.5,0.4,1.1,0.3,1.7,0.3c1.1,0,2.2,0,3.3,0c0.3,0,0.7,0.1,1,0.3
		c0.8,0.5,1.8,1,2.3,1.8s1.1,1.4,1.8,2.1c0.3,0.3,0.7,0.7,1.2,0.6c0.1,0,0.3,0.1,0.4,0.2c0.5,0.3,0.9,0.7,1.5,1s1.3,0.5,2,0.9
		c0.4,0.2,0.7,0.6,1,0.9c0.2,0.2-0.2,0.7-0.5,1c-0.8,0.5-1.6,0.4-2.5,0.4c-0.2,0-0.4-0.1-0.5-0.2c-0.5-0.2-1-0.4-1.5-0.6h-0.1
		c-0.6-0.2-1.2-0.5-1.8-0.7c-0.1,0-0.1-0.1-0.2-0.1c-0.5-0.1-1-0.2-1.5-0.5c-0.5-0.2-0.9-0.5-1.3-0.8c-0.7-0.4-1.3-0.8-2-1.2
		c-0.9-0.4-1.8-0.8-2.6-1.2c-0.3-0.2-0.7-0.4-1-0.5c-0.5-0.2-0.9-0.5-1.4-0.7c-0.1-0.1-0.3-0.2-0.4-0.3c-0.4-0.4-0.8-0.9-1.2-1.2
		c-0.7-0.5-1.6-0.8-2.2-1.6c-0.3-0.4-0.5-0.8-0.7-1.1s-0.3-0.5-0.5-0.8c-0.7-0.8-1.6-1.5-2.2-2.3c-0.4-0.5-0.9-1-1-1.7
		c0-0.2-0.2-0.4-0.3-0.5c-0.4-0.8-0.8-1.5-1.3-2.3v-0.1c0.1-0.8-0.5-1.4-0.7-2.1c-0.2-0.7-0.7-1.4-0.5-2.2c0.1-0.6-0.1-1-0.6-1.4
		c-0.1-0.1-0.2-0.3-0.2-0.5c0-0.5,0-0.9,0-1.4c0-0.1,0-0.2,0-0.3c0.6-0.6,0.3-1.4,0.4-2.1c0-0.4,0-0.9,0-1.3c0-0.1,0-0.3-0.1-0.4
		c-0.5-0.5-0.3-1.1-0.2-1.6c0-0.3,0.1-0.6,0-0.9c-0.2-1.1-0.3-2.2,0-3.3c0.1-0.3,0-0.6,0-0.9c0-0.5-0.2-0.9-0.2-1.4
		c0-2.4,0-4.8,0.1-7.3c0-0.1,0-0.2,0-0.3c0.6-1.2,0.2-2.5,0.2-3.7c0-0.2,0-0.3-0.1-0.5c-0.2-0.4-0.4-0.7,0.1-1.1
		c0.1-0.1,0.1-0.3,0.1-0.4c0-1.3-0.1-2.6,0-3.8c0-0.9,0.2-1.7,0.3-2.6c0-0.2,0-0.4,0-0.6c0-2.7-0.1-5.5,0-8.2c0-0.8,0.4-1.7,1.3-2.1
		c0.1-0.1,0.2-0.2,0.3-0.3c0.4-0.2,0.6-0.1,0.7,0.3c0,0.2,0.1,0.4,0.2,0.6c0.1,0.2,0.2,0.5,0.2,0.7c0.2,1.2-0.1,2.3,0,3.5
		s0,2.3,0,3.5c0,1.1,0.9,1.9,2,1.9c0.2,0,0.4-0.1,0.5-0.2c0.3-0.2,0.5-0.5,0.8-0.7c0.6-0.5,0.5-1.2,0.5-1.8c0-0.2,0-0.3,0-0.5
		C23,62.1,23.1,62.1,23.1,62.1z M42.4,103.8c-0.1,0-0.3,0.1-0.5,0.2c-0.5,0.3-0.9,0.7-1.4,0.9c-0.4,0.2-0.5,0.5-0.4,0.8
		c0.1,0.4,0.1,0.7,0.3,1.1c0.1,0.3,0.2,0.6,0.4,0.9c0.4,0.4,0.8,0.7,1.2,1.1c0.3,0.3,0.6,0.4,1,0.1c0.7-0.5,1.3-0.9,2-1.4
		c0.2-0.2,0.2-0.5,0.3-0.8c0-0.2-0.1-0.4-0.1-0.6C45,104.9,43.8,103.8,42.4,103.8z"/>
	<path class="st0" d="M67.1,71.8c-0.2,0.2-0.5,0.4-0.7,0.5c-0.8,0.1-1.5,0.2-2.2,0.5c-0.1,0-0.2,0-0.2,0.1c-0.6,0.5-1.2,0.3-1.9,0.4
		c-0.7,0-1,0.4-1,1c0,0.3-0.1,0.9-0.2,0.9c-0.5,0.1-1.1,0.1-1.5-0.1c-0.6-0.3-1.4-0.3-2,0.1c-0.1,0.1-0.3,0.1-0.4,0.1
		c-0.6,0-1.2,0-1.7,0c-0.8,0.1-1.3-0.3-1.9-0.6c-0.2-0.1-0.4-0.2-0.6-0.2c-1-0.1-2-1.1-2.1-2.1c-0.1-0.9,0.3-1.4,1-1.9
		c0.1,0,0.1-0.1,0.1-0.1c0.1-0.8,0.7-0.6,1.2-0.6c1.1,0,2.1,0,3.2,0c0.1,0,0.2,0,0.3,0c0.9,0.7,2,0.2,3,0.3c0.5,0,1,0,1.5,0
		c0.9-0.1,1.8-0.4,2.4-0.9c0.5-0.4,0.4-1.1,0.2-1.6c-0.1-0.4-0.4-0.8-1-0.8c-0.3,0-0.6-0.3-1-0.5c-0.2-0.1-0.5-0.2-0.7-0.3
		c-0.7,0-1.4,0-2.1,0c-0.2,0-0.5,0.1-0.7,0.2c-0.2,0.1-0.4,0.2-0.6,0.2c-1.1,0.2-1.7-0.5-2.1-1.3c-0.2-0.3-0.1-0.8-0.1-1.2
		s0.1-0.7,0.2-1.1c0.1-0.3,0.2-0.6,0.3-1s0.3-0.9,0.4-1.3c0.1-0.5,0.5-0.8,1.1-1c1.7-0.7,3.4-0.3,5.1-0.4c0.5,0,1.4-0.6,1.5-1.1
		c0-0.1,0-0.3-0.1-0.4c-0.1-0.3-0.2-0.5-0.2-0.8c-0.1-0.3-0.2-0.4-0.5-0.4s-0.6-0.1-0.9-0.2c-0.1,0-0.3-0.1-0.4-0.1
		c-1.8,0-3.5,0-5.3,0c-0.3,0-0.5-0.1-0.8-0.2c-0.1,0-0.2-0.1-0.3-0.1c-0.7,0.5-1.5,0.1-2.3,0.3c-0.3,0-0.6,0-0.9,0
		c-1.2,0.2-1.8-0.7-2.4-1.4c-0.1-0.1-0.1-0.4,0-0.4c0.4-0.2,0.3-0.6,0.4-0.9c0.1-0.5,0.9-1.2,1.4-1.3c0.7-0.2,1.6-0.2,2.2-0.5
		c1.2-0.6,2.5-0.2,3.7-0.3c0.2,0,0.4,0.1,0.5,0.2c0.4,0.2,1,0.2,1.4,0c0.6-0.4,1.1-0.7,1.7-1c0.5-0.3,0.6-0.8,0.7-1.3
		c0-0.4-0.3-0.7-0.7-1c-0.4-0.2-0.8-0.3-1.3-0.3c-0.4,0-0.8-0.2-1.2-0.3c-0.7-0.1-1.5-0.1-2.2-0.1c-0.5,0-1.1-0.1-1.6,0.3
		c0,0-0.2,0-0.3,0c-0.8,0-1.5-0.3-2.1-0.7c-0.6-0.4-1.1-0.8-1.6-1.2c-0.3-0.3-0.5-1.1-0.3-1.4c0.6-0.8,1.1-1.6,2.3-1.4
		c0.4,0.1,0.7,0,1.1,0c0.1,0,0.3,0,0.4,0.1c0.5,0.4,1.1,0.3,1.6,0.3c0.3,0,0.5,0.1,0.7,0.2c0.1,0,0.1,0.1,0.2,0.1
		c1.1,0.2,2.3,0.4,3.4,0.5c0.6,0.1,0.9-0.3,1.2-0.8c0.4-0.8,0.8-1.6,1.1-2.4c0.1-0.3,0.1-0.6,0.2-0.9c0.1-0.7,0.2-1.5,0.3-2.2
		c0-0.8,1-1.8,2-1.5c0.3,0.1,0.5,0.5,0.7,0.7c0.1,0.1,0.1,0.4,0.2,0.5c0.5,0.3,0.7,0.9,0.9,1.4c0.1,0.2,0,0.6,0,0.9
		c0,0.2-0.2,0.5-0.2,0.7c-0.1,0.3-0.2,0.5-0.2,0.8c0,0.1-0.1,0.2-0.1,0.3c-0.1,0.9-0.4,1.9-0.3,2.7c0.2,1.1,0.2,2.1,0.3,3.2
		c0,0.1,0,0.2,0.1,0.3c0.4,0.4,0.3,0.8,0.1,1.2c-0.1,0.1-0.1,0.3,0,0.4c0.5,0.7,0.3,1.5,0.3,2.2c0,0.8,0.6,1.5,1.3,1.7
		c0.4,0.1,0.7,0.3,1.1,0.4c0.5,0,1-0.5,1-1c0-0.7,0-1.5-0.4-2.2c-0.2-0.3,0.2-0.8,0.7-0.9c0.3,0,0.6,0,0.9,0s0.6-0.2,0.8-0.3
		c0.2-0.1,0.3-0.1,0.5-0.1c0.3-0.1,0.6-0.2,1-0.3c0.1,0,0.3-0.1,0.3-0.1c0.6,0.4,1.3,0.7,1.8,1.3c0.4,0.5,0.7,1,0.9,1.6
		c0.2,0.5,0,1.3,0.7,1.7c0.1,0,0,0.2,0,0.3c0,1,0,1.9,0,2.9c0,0.1,0,0.3,0,0.4c-0.7,0.9-0.3,1.9-0.4,2.9c0,0.4,0,0.7-0.3,1.1
		c-0.3,0.3-0.3,0.8-0.5,1.2c-0.4,1.2-1,2.3-1.8,3.3c-0.6,0.6-1.3,1-2,1.5c0,0-0.1,0-0.1,0.1c-0.2,0.4-0.4,0.8-0.5,1.2
		s-0.1,0.9,0.3,1.3c0.2,0.2,0.1,0.6,0.1,0.9c0,0.5,0.1,0.7,0.6,0.6c0.4,0,0.8,0,1.2,0c0.2,0,0.4-0.2,0.7-0.2
		c0.2-0.1,0.4-0.2,0.6-0.2c0.5,0,0.7-0.1,0.6-0.6c-0.1-1,0.4-1.9,1-2.7c0.1-0.2,0.2-0.4,0.2-0.7c-0.1-0.7,0.2-1.3,0.7-1.8
		c0.1-0.1,0.1-0.2,0.1-0.3c0.1-1.2,0.7-2.2,1.6-3.1c0.1-0.1,0.2-0.2,0.3-0.1c0.4,0.1,0.8-0.2,1.1-0.4c0.7-0.6,1.6-0.6,2.4-0.2
		c0.1,0.1,0.4,0.1,0.5,0c0.7-0.5,1.4-0.3,2.1-0.3c0.3,0,0.5,0,0.8,0c1.7-0.2,2.6,0.9,3.3,2.2c0.3,0.6,0.5,1.3,0.9,2
		c0.2,0.4,0.6,0.8,0.9,1.1c0.1,0.1,0.1,0.3,0.2,0.5s0.2,0.4,0.3,0.6c0.2,0.3,0.2,0.8-0.1,1.1c-0.2,0.2-0.2,0.3,0,0.5
		c0.1,0.1,0.1,0.1,0.2,0.2c0.8,0.5,0.9,1.2,0.9,2.1c0,0.4-0.2,0.5-0.5,0.5c-0.8,0-1.6,0-2.4,0c-0.9,0-1.8,0-2.7,0.1
		c-0.5,0-1,0.3-1.5,0.4c-1.2,0.3-2.5,0.5-3.7,0.3c-0.4-0.1-0.9,0.1-1.4,0c-0.3,0-0.6-0.1-0.9-0.2c-0.1,0-0.2-0.1-0.3-0.1
		c-0.8-0.1-1.5-0.5-2.1-1.1c-0.2-0.2-0.6-0.3-0.8-0.3c-0.4,0-0.4,0.4-0.4,0.7c0,1.1,0,1-1.1,1c-1.5,0-3.1,0-4.6,0
		c-0.5,0-1.1-0.1-1.4-0.5c-0.2-0.2-0.1-0.9,0-1.3c0.1-0.3,0.5-0.6,0.7-0.9c0.1-0.2,0.2-0.5,0.3-0.7c0.1-0.3,0.1-0.7,0.2-1.1
		c0-0.1,0-0.2,0-0.4c-0.1-0.5-0.2-0.9-0.3-1.4c-0.1-0.7,0-1.4-0.3-2.1c0-0.1,0-0.1,0-0.2c0.5-1.4-0.3-2.7,0-4.1
		c0.1-0.3,0.2-0.5,0.2-0.8c0-0.2,0.1-0.3,0.1-0.5s0-0.5,0-0.7c0.2-0.7-0.1-1.2-0.6-1.6c-0.1-0.1-0.2-0.2-0.3-0.4
		c-0.2-0.4-0.7-0.7-1.1-0.4c-0.6,0.3-1.3,0.5-1.5,1.4c0,0.3-0.4,0.6-0.5,0.9c-0.1,0.3-0.2,0.6-0.3,0.9c0,1.1,0,2.1,0,3.2
		c0,0.4,0.2,0.7,0.3,1.1c0,0.2,0.1,0.3,0.1,0.5c0,0.5,0,0.9,0,1.4c0,0.4-0.2,0.8-0.3,1.2c-0.1,0.5-0.1,1-0.1,1.5
		c0,0.4,0,0.8,0.1,1.2c0.1,0.8,0.2,1.6,0.4,2.4C66.9,71.4,67,71.6,67.1,71.8z"/>
	<path class="st0" d="M78.4,122.6c-0.5,0.5-0.9,0.9-1.3,1.4c-0.3,0.3-0.5,0.6-0.7,1c-0.2,0.5-0.6,1.1-1.4,1.1c-0.1,0-0.2,0-0.3,0.1
		c-0.5,0.5-1.1,0.3-1.6,0.3c-2.4,0-4.7,0-7.1,0c-0.6,0-1.1,0.1-1.7,0.2c-0.2,0-0.3,0-0.5,0c-1.9,0-3.7-0.1-5.6-0.1
		c-0.6,0-1.3,0-1.9,0c-0.3,0-0.5-0.2-0.8-0.2l-0.1-0.1c-1.1-0.2-2.1-0.8-3.2-0.4c-0.4,0.1-0.8,0.2-1.2,0.3h-0.1
		c-0.4-0.3-0.9-0.6-1.2-0.9c-0.2-0.2,0.1-1,0.5-1c0.6,0,1.3-0.3,1.9,0.3c0.1,0.1,0.3,0.1,0.4,0.1c0.6,0.1,1.1,0.3,1.7,0.3
		c0.4,0,0.8-0.2,1.2-0.3c0.7-0.4,1.2-1.2,1.1-2c-0.1-0.4-0.5-0.9-1-0.9c-0.3,0-0.6,0-0.9,0c-0.3,0-0.5-0.2-0.7-0.2
		c-0.2-0.1-0.4-0.1-0.5-0.1c-1.2,0-2.3-0.4-3.4-0.9c-0.8-0.4-1.6-0.7-2.4-1.1c-0.4-0.2-0.5-0.4-0.2-0.6c0.5-0.4,1-0.9,1.6-1.3
		c0.3-0.2,0.8-0.3,1.1-0.5c0.1-0.1,0.2-0.2,0.4-0.3c0.8-0.8,2.1-1,3.2-0.7c1,0.3,2,0.3,2.9-0.2c0.1,0,0.2-0.1,0.2-0.1
		c1-0.1,1.4-0.7,1.8-1.5c0.2-0.4,0.5-0.7,0.9-0.9c0.3-0.2,0.6,0,0.6,0.4c0.2,1,0.4,1.9,1.4,2.4c0.3,0.1,0.5,0.4,0.6,0.7
		c0.2,0.5,0.6,0.7,1,0.5s0.8-0.4,1.2-0.7c0.2-0.1,0.3-0.5,0.3-0.7c0-0.8-0.1-1.5-0.1-2.3c0-0.7,0.1-1.4,0.1-2.1c0-0.3,0-0.7,0-1
		c0-0.6-0.1-1.2,0.5-1.6c0.5-0.3,1-0.6,1.5-0.9c0.2-0.1,0.4-0.2,0.5-0.4c0.5-0.4,1-0.8,1.6-1.2c0.4-0.2,0.9-0.4,1.3-0.6
		c0.5-0.2,1.1-0.4,1.6-0.8c0.5-0.4,0.9-0.8,1.3-1.3c0.5-0.5,1-1,1.5-1.6c0.4-0.5,0.7-1.1,1.1-1.7c0.1-0.1,0.1-0.3,0.3-0.4
		c0.8-0.7,0.7-1.4,0.2-2.2c-0.4-0.6-0.6-1.3-1.3-1.6c-0.7-0.4-1.4-0.7-2.1-0.2c-0.4,0.2-0.5,0.7-0.8,1.1c-0.1,0.2-0.2,0.3-0.3,0.5
		c0,0.1-0.1,0.1-0.1,0.2c0,1-0.7,1.9-0.4,2.9c0,0.1-0.1,0.3-0.2,0.5c-0.1,0.1-0.2,0.3-0.2,0.4c0.1,0.5-0.1,0.9-0.4,1.2
		c-0.2,0.2-0.4,0.3-0.6,0.4c-0.3,0.2-0.7,0.4-1,0.6c-0.1,0.1-0.2,0.2-0.3,0.2c-1.1,0.2-2.2,0.3-3.3,0.4c-0.5,0.1-0.9-0.3-0.9-0.9
		c0-1-0.1-2.1,0-3.1c0.1-0.5,0.4-1,0.7-1.5c0.5-0.6,1.1-1.1,1.7-1.7c0.1-0.1,0.1-0.1,0.2-0.1c0.7-0.1,1.3-0.4,1.9-0.8
		c0.1,0,0.1-0.1,0.2-0.1c0.7,0.1,1-0.3,1.4-0.7c0.5-0.4,1.1-0.7,1.5-1.2c0.5-0.6,0.8-1.3,1.3-1.9c0.3-0.4,0.3-0.9,0.5-1.2
		c0.3-0.6,0.3-1.2,0.4-1.8c0-0.2,0.3-0.5,0.4-0.7c0.1-0.5,0.1-1-0.4-1.4c-0.2-0.2-0.3-0.7-0.4-1c-0.1-0.6-0.8-0.8-1.3-0.6
		c-0.6,0.2-1.2,0.5-1.5,1c-0.3,0.6-0.6,1.2-1.3,1.4c0,0.5,0,1,0,1.4c0,0.3,0.2,0.5,0.2,0.8c0.1,0.3,0,0.6,0,0.8c0,0.4,0,0.7-0.3,1
		s-0.3,0.9-0.5,1.2c-0.3,0.4-0.6,0.8-1,1c-0.3,0.2-0.8,0.3-1.1,0.5c-0.5,0.3-0.9,0.4-1.4,0c-0.3-0.2-0.7-0.3-1-0.5
		c-0.1-0.1-0.2-0.3-0.2-0.4c0-2,0-4,0-6c0-0.2,0.1-0.4,0.2-0.6c0.2-0.6,0.5-1.3,0.6-1.9c0.1-0.6,0.6-1.1,1.2-1.2c1-0.1,2-0.3,3-0.4
		c0.2,0,0.5,0,0.7,0c1.5,0.5,3,0.4,4.5,0.2c0.8-0.1,1.9,0.7,2,1.5c0.2,1.2,0.1,2.3,0.2,3.5c0.1,0.8,0.3,1.6,0,2.3c0,0,0,0.1,0,0.2
		c0.6,1.8,0.2,3.6,0.3,5.4c0,0.4-0.1,0.9,0.1,1.2c0.3,0.7,0.2,1.5,0.4,2.1c0.5,1.3,0.3,2.6,0.2,3.9c0,0.3,0.1,0.6,0.1,1
		c0,0.6,0,1.1,0,1.7c0,0.2-0.1,0.3-0.2,0.4c-0.1,0.2-0.2,0.4-0.2,0.5c0.1,0.5,0.2,1.1,0.3,1.6c0.1,0.7,0.1,1.4,0.2,2.1
		c0,0.4,0,0.8,0.3,1.2c0.2,0.2,0,0.7,0,1c0,0.2-0.2,0.5-0.2,0.7c0,0.5,0.1,1-0.3,1.4c-0.1,0.1-0.1,0.4,0,0.5
		c0.5,0.7,0.3,1.4,0.2,2.1c0,0.4-0.5,0.7-0.3,1.1c0,0.1,0,0.3,0.1,0.3c0.4,0.5,0.7,1,0.8,1.7C78.1,122.2,78.3,122.4,78.4,122.6z"/>
	<path class="st0" d="M147.5,54.7c-1.4,1-2.7,2-4,2.9c-2.2,1.6-4.5,3.2-6.7,4.8c-0.5,0.4-1.1,0.8-1.6,1.2c-1.2,1-2.6,1.6-4.1,2
		c-0.7,0.2-1.1-0.2-1.2-0.9c0-0.6,0.2-1.1,0.6-1.5c2.4-2.4,5-4.6,7.7-6.7c2.9-2.2,5.9-4.4,8.9-6.6c0.1-0.1,0.2-0.3,0.3-0.4
		c0.6-2.3,0.7-4.6,0.8-6.9c0-1.1,0-2.2,0.1-3.3c0-0.2,0.1-0.4,0.3-0.6c0.3-0.4,0.7-0.7,1-1c0.1-0.1,0.2-0.1,0.3-0.2
		c0.9-0.1,1.7,0.1,2.3,0.9c0.4,0.5,0.6,0.9,0.6,1.6c0,2.1,0,4.1,0,6.3c0.8-0.9,1.6-1.7,2.3-2.4c0.1-0.1,0.1-0.2,0.2-0.2
		c0.8-0.8,0.9-0.6,0.1-1.6c-0.3-0.3-0.5-0.7-0.8-1.1c0.7-0.3,1.3-0.6,1.9-0.8c0.2-0.1,0.4,0,0.6,0.1c0.7,0.4,1.3,0.8,2,1.2
		c0.5,0.3,0.6,1.2,0.1,1.8c-0.8,1-1.7,2.1-2.5,3.1c-1.1,1.4-2.2,2.8-3.3,4.2c-0.5,0.6-0.6,1.2-0.6,1.9c0,1.2-0.2,2.4-0.3,3.7
		c0,0.4-0.1,0.8-0.1,1.1c0,2.3,0,4.6,0,6.9c0.4,0.1,0.8,0.2,1.2,0.3c1,0.2,1.6,0.9,1.4,1.9c-0.2,1.3-0.5,2.5-0.8,3.7
		c0,0.2-0.1,0.4-0.1,0.6c1.6,0.5,2.5,1.7,2.9,3.2c0.3,1.2-0.1,2.3-0.9,3.3c-0.7,0.8-1.3,1.7-1.9,2.6c0.4,0.1,0.8,0.1,1.2,0.2
		c2.2,0.4,3.7,1.7,4.2,3.9c0.2,0.7,0.2,1.4,0.1,2.2c0,0.2-0.3,0.4-0.6,0.6c-1.9,1.6-4,2.7-6.4,3.4c-0.5,0.1-1.1,0.2-1.7,0.3
		c0.2,0.3,0.4,0.5,0.6,0.8c0.2,0.4,0.5,0.8,0.7,1.3c0.1,0.2,0,0.4-0.1,0.6c-0.4,0.5-0.8,1-1.2,1.5c-0.1,0.1-0.3,0.2-0.4,0.2
		c-0.8,0-1.5,0-2.3,0c-0.1,0-0.4-0.1-0.4-0.2c-0.4-0.9-1.3-1.1-2.2-1.3c-1.1-0.2-2.2-0.2-3.3-0.3c-0.5,0-1.1-0.8-1.2-1.3
		c-0.2-1.7,0.9-2.6,2.2-3.2c1.7-0.9,3.6-1.5,5.5-1.9c1.1-0.3,2.2-0.4,3.3-0.8c0.9-0.3,1.7-1,2.5-1.5c0-0.1,0-0.1-0.1-0.2
		c-0.5,0-1.1,0.1-1.6,0.1c-0.8,0.1-1.6,0.1-2.4,0.2c-0.3,0-0.5-0.1-0.6-0.4c-0.4-1.2-0.8-2.3-1.2-3.5c-0.1-0.2,0-0.5,0-0.7
		c0.7-1.7,1.5-3.4,2.2-5v-0.1c-1.4-0.1-2.8-0.2-4.1-0.8c-1.1-0.5-1.8-1.4-1.9-2.6c0-0.2,0-0.5,0.2-0.7c0.8-1.3,1.6-2.6,2.3-3.9
		c0.2-0.3,0.3-0.6,0.3-1c0-3.1,0-6.2,0-9.3C147.6,55.4,147.6,55.1,147.5,54.7z M147.7,70c0.3-0.3,0.5-0.5,0.7-0.7
		c0.3-0.3,0.1-0.6-0.1-0.9c-0.3-0.3-0.7-0.6-1-0.9C147,67.9,147.1,69.4,147.7,70z"/>
	<path class="st0" d="M51.3,17.3c0.4,0.4,0.9,0.3,1.4,0.3c0.8-0.1,1.7-0.1,2.5-0.1s1.7,0.2,2.5,0.3c0.3,0,0.6-0.1,0.9-0.2
		c0.3-0.1,0.7-0.3,1-0.2c0.8,0.2,1.6,0,2.3,0.4c0.5,0.3,1.2,0.3,1.8-0.1c0.4-0.3,0.8-0.4,1.2,0c0.1,0.1,0.3,0.2,0.5,0.2
		c0.5,0,1,0,1.5,0c0.4,0,0.7-0.1,1,0.3c0,0,0.1,0,0.1,0.1c0.7,0.2,1.3,0.3,2,0.5c0.8,0.2,1.6,0.4,2.4,0.7c0.5,0.1,1,0.3,1.5,0.4
		c1,0.2,1.8,0.6,2.6,1.2c0.5,0.4,1.2,0.6,1.7,1c0.5,0.3,1,0.7,1.5,1l0,0c0.9,0.2,0.7,0.9,0.7,1.5c0,0.8,0,1.7,0,2.5
		c0,0.3,0.1,0.6,0.2,0.8c0.3,0.4,0.3,0.7,0,1.1c-0.2,0.4-0.2,0.7-0.1,1.1c0.2,0.7,0.2,1.4,0.3,2.1c0,0.3,0,0.7,0,1
		c0,1.1-0.2,1.4-1.3,1.8c-0.4,0.2-0.8,0.5-1.2,0.6c-0.2,0.1-0.5,0.1-0.6,0c-0.4-0.3-0.9-0.7-1.1-1.1c-0.2-0.3-0.1-0.8,0-1.1
		c0.1-0.3,0.1-0.6,0-0.9c-0.2-0.5-0.2-1.1,0.1-1.7c0.2-0.5,0.1-1.1,0-1.7c-0.1-0.4-0.3-0.7,0-1.1c0.1-0.1,0.1-0.2,0.1-0.3
		c0-0.8,0-1.7,0-2.5c0-0.1-0.1-0.3-0.3-0.4c-0.6-0.3-1.2-0.6-1.8-0.9c-0.6-0.2-1.4,0-1.7,0.9c-0.1,0.3-0.2,0.7-0.2,1.1
		c0.1,0.7-0.5,0.9-0.8,1.3c-0.1,0.1-0.3,0.1-0.3,0c-0.8-0.5-1.7-0.8-1.9-1.9c-0.2-0.8-0.5-1.7-1.2-2.2c-0.9-0.6-1.7-0.7-2.5,0.2
		c-0.3,0.3-0.5,0.6-0.8,0.9c-0.6,0.6-0.4,1.2-0.3,1.9c0.1,0.5,0,1,0,1.5c0,0.7-0.1,1.4,0,2.1c0.2,1.1,0.1,2.2-0.2,3.3
		c-0.1,0.4-0.5,0.6-1.1,0.5C63.4,33.4,63,33,63,32.7c-0.1-1-0.1-2,0-3c0-0.2,0.3-0.4,0.4-0.6c0.1-0.2,0.3-0.4,0.4-0.6
		c-0.2-0.1-0.4-0.3-0.6-0.3c-0.6,0-1.1,0-1.7,0c-0.5,0-0.9,0-1.3-0.3c-0.3-0.2-0.7-0.1-1.1-0.1c-0.2,0-0.4-0.1-0.7-0.2
		c-0.2-0.1-0.3-0.2-0.5-0.2c-0.4,0-0.8,0-1.2,0c-0.2,0-0.5,0.2-0.7,0.2c-0.5,0-1.1,0-1.6,0c-0.3,0-0.5-0.2-0.8-0.2
		c-0.9,0-1.8,0-2.7,0c-0.2,0-0.5,0.2-0.7,0.3c-0.1,0-0.3,0.1-0.3,0c-0.4-0.4-0.9-0.3-1.3-0.3c-0.5,0-1,0-1.5,0c-0.4,0-0.7,0-1,0.3
		c-0.2,0.2-1.2,0.1-1.5-0.1c-0.2-0.1-0.4-0.2-0.6-0.2c-0.6,0-1.3,0-1.9,0c-0.2,0-0.4,0-0.4,0.1c-0.6,0.5-1.3,0.3-1.9,0.3
		c-0.1,0-0.2,0-0.3-0.1c-0.5-0.4-1-0.4-1.5-0.1c-0.1,0-0.1,0.1-0.2,0.1c-0.8,0.2-1.5,0.6-2.1,1.2c-0.6,0.5-1.4,0.7-2.2,0.9
		c-0.4,0.1-0.7,0.3-0.9,0.6c-0.3,0.5-0.6,1.1-0.5,1.7c0.1,1,0.2,1.9,0.3,2.9c0,0.6,0,1.1-0.1,1.7c-0.1,0.7-0.2,1.5-0.3,2.2
		c0,0.2,0,0.4-0.1,0.5s-0.3,0.1-0.4,0.1s-0.2-0.2-0.3-0.3c-0.3-0.4-0.5-0.4-0.9-0.1c-0.3,0.2-0.7,0.4-1,0.6
		c-0.1,0.1-0.2,0.2-0.2,0.3c0.1,1-0.6,1.8-0.5,2.8c0.1,0.6,0,1.2,0.1,1.9c0,0.4-0.1,0.7-0.4,0.9c-0.2,0.1-0.4,0.2-0.6,0.1
		c-0.1,0-0.2-0.3-0.2-0.4c-0.2-1,0-2.1,0-3.1c-0.1-3.1-0.1-6.2-0.1-9.3c0.4-0.7,0.1-1.4,0-2.1c0-0.3,0-0.7-0.3-0.9
		c-0.1-0.1,0-0.4,0-0.6c0.1-0.2,0.3-0.4,0.3-0.6c-0.1-1.4,0.8-2.2,1.6-3c0.3-0.3,0.6-0.6,0.9-0.8c0.6-0.4,1.1-1,1.7-1.2
		c0.4-0.2,0.9-0.2,1.4-0.5s1-0.5,1.4-0.8c0.5-0.4,1.2-0.6,1.8-0.8c0.2-0.1,0.3-0.1,0.5-0.2s0.3-0.2,0.4-0.2c0.6-0.2,1.1-0.3,1.7-0.5
		c0.9-0.4,1.9-0.8,3-0.8c0.4,0,0.8-0.2,1.2-0.3c0.8-0.1,1.5-0.7,2.4-0.6c0.2,0,0.4-0.1,0.7-0.2c0.1,0,0.1-0.1,0.2-0.1
		c0.9-0.2,1.9-0.3,2.8-0.5C49.7,17.8,50.6,17.9,51.3,17.3z"/>
	<path class="st0" d="M84.9,84.2c0.6,0,1.3-0.1,2-0.1c1.1,0,2.2-0.1,3.3,0.1c0.7,0.1,1.4,0.6,1.8,1.2l0.1,0.1
		c0.1,0.9,0.3,1.9,0.4,2.8c0,0.3,0.1,0.6,0.3,0.9c0.2,0.4,0.4,0.8,0.5,1.2c0.1,0.1-0.1,0.3-0.1,0.5c-0.1,0.3-0.2,0.5-0.2,0.8
		c0,0.4-0.1,0.6-0.3,0.9c-0.5,0.8-1.4,1-2.1,0.7c-0.6-0.2-1.4-0.1-1.8-0.4c-0.8-0.6-1.8-1-2.3-2c-0.2-0.5-0.2-1.1-0.5-1.6
		c-0.3-0.7-0.1-1.5-0.7-2.1c-0.3-0.3-0.4-0.8-0.5-1.3c-0.3-1-1.1-1.3-2-0.8c-1.2,0.7-1.4,1.8-1.3,3c0,0.1,0.1,0.3,0.2,0.4
		c0.2,0.4,0.5,0.7,0.8,1s0.6,0.5,0.9,0.7c0.6,0.4,0.8,1,1.1,1.6c0.2,0.3,0.5,0.5,0.7,0.8c0.2,0.2,0.5,0.4,0.8,0.6
		c0.4,0.4,0.7,0.7,1.3,0.8c0.5,0,0.9,0.5,1.3,0.6c0.8,0.3,1.4,0.9,2.1,1.2c0.4,0.2,0.8,0.3,1.2,0.5l0,0c0.4,0.6,1.3,0.9,1.4,1.8
		c0,0.1,0,0.2,0,0.3c0.6,0.6,0.3,1.3,0.4,2c0,0.6,0,1.3,0,1.9c0,0.4-0.2,0.7-0.6,0.9c-0.2,0.1-0.3,0.1-0.5,0.2
		c-0.5,0.2-0.9,0.2-1.4,0c-0.2-0.1-0.5-0.2-0.7-0.2c-0.7,0.1-1.2-0.3-1.7-0.6c-0.2-0.1-0.2-0.4-0.4-0.5c-0.6-0.7-1.2-1.5-1.8-2.2
		c-0.2-0.2-0.4-0.4-0.5-0.6c-0.2-0.2-0.2-0.5-0.4-0.7c-0.4-0.7-0.4-1.8-1.5-1.9c-0.5-0.6-1.1-0.3-1.7-0.4c-0.4,0-0.6,0.2-0.6,0.6
		c0,0.4,0,0.9-0.3,1.3c-0.3,0.5-0.1,1.2,0.3,1.6c0.4,0.4,0.7,0.8,1.2,1.1c0.4,0.3,0.9,0.6,1.5,0.8c0.7,0.3,1.2,0.8,1.8,1.3
		c0.5,0.4,1.1,0.8,1.7,1.1c0.2,0.1,0.4,0.2,0.5,0.4c0.5,0.5,1.1,0.6,1.6,0.9c0.5,0.3,1,0.8,1.4,1.2c0.3,0.3,0.7,0.5,1.1,0.8
		s0.8,0.5,1.2,0.8c0.1,0.1,0.2,0.4,0.2,0.5v0.1c0.4,0.6,0.3,1.2,0.4,1.9c0,0.4,0.2,0.8-0.2,1.2c-0.3,0.3-0.2,0.9,0.1,1.2
		c0.4,0.4,0.9,0.8,1.2,1.2c0.1,0.1,0.1,0.5,0,0.6c-1.3,1.3-2.5,2.6-3.8,3.8c-0.5,0.4-1.1,0.7-1.6,1c-0.8,0.6-1.6,1.4-2.5,1.9
		c-0.7,0.4-1.2,1.1-2.1,1.1c-0.1,0-0.2,0-0.2,0c-0.4,0.5-1,0.3-1.6,0.3c-0.2,0-0.4-0.2-0.7-0.2c-0.3-0.1-0.6-0.2-0.9-0.2
		c-0.8,0-1.5-0.8-1.4-1.6c0-0.4,0-0.7,0-1.1c0-3.5,0-7-0.1-10.6c0-0.3-0.2-0.7-0.3-1c0-0.3-0.1-0.6,0-0.8c0.2-0.4,0.1-0.8,0-1.3
		c-0.1-0.7-0.1-1.4-0.1-2.1c0-0.4,0.3-0.9,0.3-1.3c0-0.4-0.2-0.7-0.2-1.1c-0.1-0.6-0.3-1.3,0-1.8c0.4-0.9,0.4-1.7,0.2-2.5
		c-0.3-1.2-0.3-2.3-0.3-3.5c0-0.2,0-0.4,0.2-0.5c0.4-0.4,0.3-0.9,0.1-1.3c-0.2-0.6-0.5-1.1,0-1.8c0.1-0.2,0.2-0.5,0.2-0.7
		c0-1.1,0-2.2,0-3.3c0-0.7,0.7-1.6,1.3-1.9C83,84.1,83.9,84,84.9,84.2z"/>
	<path class="st0" d="M268.2,56c1.9-1.3,3.8-2.6,5.7-3.9c0.8-0.5,1.6-1.1,2.4-1.6c0.6-0.4,0.6-0.4,1,0.1c0.1,0.2,0.3,0.3,0.4,0.4
		c0.4,0.6,0.3,1-0.2,1.5c-1.2,1.1-2.5,2.2-3.7,3.3s-2.3,2.4-3.1,3.8c-0.4,0.7-0.8,1.4-0.8,2.3c-0.1,2.2-0.2,4.3-0.4,6.5
		c-0.2,3-0.4,5.9-0.6,8.9c0,0.2,0.1,0.4,0.3,0.5c1.4,0.7,2.8,1.5,4.2,2.1c1.3,0.6,2.7,0.9,4.2,1c0.6,0.1,1.1-0.4,1.1-1.1
		c0-4.8,0-9.6,0-14.4c0-3.2-0.1-6.5,0-9.7c0.1-1.8-0.3-3.6-0.8-5.3c-0.2-0.6,0.5-1.4,1.1-1.4c0.8-0.1,1.3,0.1,1.7,0.8
		c0.2,0.4,0.5,0.7,0.8,1c0.9,0.8,1,1.8,0.8,2.9c-0.1,0.9-0.2,1.8-0.2,2.7c0,2-0.1,4,0,6.1c0.2,3.7,0.5,7.4,0.7,11.1
		c0.2,3.4,0.4,6.8,0.6,10.2c0.1,1.1-0.5,2-0.6,2.9c0,0.1-0.1,0.2-0.2,0.2c-1.5,0-2.9,0-4.4-0.1c-1.7-0.2-3.1-1-4.6-1.9s-3-2-4.4-2.9
		c-0.2,0.6-0.5,1.2-0.8,1.8c-0.2,0.3-0.5,0.5-0.8,0.7c-0.1,0.1-0.5,0-0.6-0.1c-0.6-0.6-1.1-1.3-1.6-2c-0.1-0.2-0.1-0.4-0.1-0.6
		c0-1.9,0.1-3.9,0.2-5.8c0.2-3,0.4-6,0.6-9c-0.5,0.5-1,0.9-1.5,1.4c-1.3,1-2.7,1.6-4.3,1.6c-0.8,0-1.5,0-2.3,0
		c-0.3,0-0.4-0.1-0.4-0.4c0-0.4-0.1-0.8,0-1.1c0.1-0.4,0.4-0.7,0.7-1c2.2-2.2,4.3-4.3,6.5-6.5c0.5-0.5,1-1,1.5-1.5
		c0.3-0.2,0.3-0.4,0.2-0.8c-0.3-0.7-0.5-1.4-0.7-2.2c-0.1-0.2,0-0.5,0.1-0.7s0.3-0.3,0.4-0.5c0.4-0.5,1-0.5,1.4,0
		c0.1,0.2,0.3,0.3,0.4,0.5C268,55.7,268.1,55.9,268.2,56z"/>
	<path class="st0" d="M89.8,53.7c0.1-0.3,0.2-0.6,0.2-0.9c0-0.4,0-0.8,0-1.1c0-0.2,0-0.3,0.1-0.5c0.2-0.6,0.4-1.1,0.7-1.7
		c0.2-0.3,0.5-0.5,0.8-0.7c0.7-0.6,1.6-0.3,2.4-0.5c0.5-0.1,1-0.4,1.5-0.6c0.1-0.1,0.3-0.1,0.4,0c0.3,0.1,0.6,0.2,0.8,0.3
		c0.5,0.2,1,0.3,1.2,0.9c0.1,0.2,0.3,0.4,0.4,0.6c0.5,0.7,0.4,1.5,0.4,2.2c0,0.8,0,1.6,0.3,2.4c0.3,0.7,0,1.6-0.1,2.4
		c0,0.1-0.1,0.3,0,0.4c0.3,1.4,0.6,2.8,0.5,4.3v0.1c0.3,0.9,0,1.8,0,2.7c0.1,1.6,0.1,3.2,0.2,4.8c0,0.6-0.2,1.2,0.3,1.7
		c0,0,0,0.1,0,0.2c-0.5,1-0.4,2.1-0.2,3c0.2,0.8,0.2,1.7,0.4,2.5c0.1,0.7,0.5,1.4,0.7,2.2c0.1,0.6,0,1.2,0,1.8
		c0,0.1-0.1,0.1-0.1,0.2c-0.6,0.3-0.6,0.8-0.6,1.4c0,0.6,0,1.2,0.3,1.8c0.2,0.3,0.1,0.9,0.1,1.4s0.1,0.9-0.3,1.4
		c-0.2,0.3,0,0.9,0.1,1.4c0,0.2,0.2,0.4,0.2,0.7c0,0.8,0,1.6,0,2.4c0,0.2,0.2,0.5,0.3,0.7c0,0.1,0,0.3,0,0.4
		c-0.1,0.2-0.2,0.4-0.2,0.6c0,1.5,0,3,0,4.5c0,0.2-0.1,0.5-0.2,0.7s-0.2,0.5-0.2,0.7c0,0.4,0,0.9,0,1.4c0,0.2-0.2,0.5-0.2,0.7
		c-0.1,0.2-0.1,0.3-0.2,0.5c-0.1,0.6-0.2,1.2-0.3,1.8c0,0.5,0,1,0.2,1.5c0.3,0.9-0.1,1.6-0.4,2.3c-0.5,1.1-1,2.2-1.1,3.5
		c0,0.2-0.2,0.3-0.4,0.5c-0.1-0.2-0.3-0.3-0.3-0.5c0-0.8,0-1.6,0-2.4c0-0.3-0.1-0.5-0.2-0.8c-0.1-0.2-0.2-0.5-0.2-0.7
		c0-1.6,0-3.3-0.1-4.9c0-0.2,0-0.5-0.1-0.7c-0.4-0.9-0.2-1.8-0.3-2.7c0-0.1,0-0.2,0.1-0.2c0.6-0.6,0.3-1.4,0.3-2.1
		c0-0.1,0-0.3-0.1-0.3c-0.5-0.4-0.3-0.8-0.1-1.3c0.2-0.3,0.2-0.6,0-0.9c-0.1-0.2-0.2-0.4-0.2-0.6c0-2.6,0-5.1-0.1-7.7
		c0-0.6-0.2-1.3-0.2-1.9c0-0.3,0-0.6,0.1-0.8c0.2-0.9-0.2-1.5-1.2-1.6c-0.1,0-0.3-0.1-0.4-0.2c-0.4-0.3-0.9-0.3-1.4-0.1
		c-0.3,0.1-0.5,0.2-0.8,0.3c-0.8,0.2-1.6,0.5-2.5,0.7c-0.1,0-0.2,0-0.3,0c-0.7-0.3-1.4-0.4-2.1,0.1c-0.1,0.1-0.3,0.1-0.5,0.1
		c-0.5,0-1.1,0-1.6,0c-0.3,0-0.6-0.2-0.9-0.2c-0.2-0.1-0.4-0.1-0.6-0.1c-0.4,0-0.8,0-1.1,0c-0.4,0-0.7,0-1-0.3s-0.8-0.3-1.2-0.5
		c-0.1-0.1-0.3-0.3-0.3-0.5c0-0.8-0.1-1.5,0-2.3c0-0.3,0.2-0.6,0.4-0.7c0.4-0.2,0.9-0.4,1.4-0.5c0.1,0,0.3,0,0.4-0.1
		c0.9-0.5,1.9-0.5,2.9-0.1c0.1,0,0.1,0,0.2,0c0.6-0.2,1.1-0.3,1.7-0.5c0.1,0,0.2-0.1,0.2,0c0.8,0.5,1.6,0.1,2.4,0.3
		c0.4,0.1,0.8,0.2,1.1,0.2c0.8,0.1,1.7,0.3,2.5-0.2c0.2-0.1,0.5-0.1,0.8,0c0.7,0.2,1.3,0.2,1.7-0.3c0.4-0.5,0.2-1,0.2-1.5
		c0-0.3,0-0.6,0-0.9c0-0.4,0.1-0.9,0-1.3c0-0.6,0.1-1,0.6-1.4c0.6-0.4,0.8-1,0.7-1.7c-0.1-0.5,0-0.9,0-1.4c0-0.3-0.1-0.6-0.5-0.7
		c-0.4-0.2-0.7-0.5-0.9-0.8c-0.8-1-1.9-1.3-2.8-2c-0.5-0.4-1.2-0.8-1.1-1.6c0-0.1,0-0.2-0.1-0.3c-0.9-0.7-1.1-1.9-1.9-2.7
		c-0.1-0.1,0-0.2-0.1-0.3c-0.1-0.3-0.2-0.5-0.3-0.8c-0.1-0.2-0.1-0.3-0.1-0.5c0-0.9,0-1.8,0-2.7C90,54.4,89.9,54.1,89.8,53.7z"/>
	<path class="st0" d="M198.6,91.3c-0.5-0.9-1.1-1.8-1.5-2.7c-1.3-2.6-2.7-5.1-3.9-7.7c-0.9-1.9-1.6-4-2-6.1c-0.5-2.6,0.1-5,1.3-7.3
		c0.7-1.3,1.4-2.6,2.2-4c-0.2,0-0.3,0-0.5,0c-1.1,0-1.8-0.5-2.2-1.5c-0.1-0.4-0.2-0.8-0.3-1.1c-0.1-0.4-0.1-0.7-0.2-1.2
		c-0.6,0.6-1.1,1.1-1.6,1.7c-2.5,2.6-4.9,5.2-7.4,7.8c-0.6,0.7-1.3,1.3-1.9,2c-0.2,0.3-0.4,0.2-0.6,0c-0.4-0.5-0.8-1-1.2-1.6
		c-0.1-0.1-0.1-0.5,0-0.6c1.4-2,2.7-3.9,4.1-5.9c1.3-1.8,2.6-3.6,4.1-5.2c1.8-2.1,3.8-4.1,5.8-6.2c1.6-1.7,3.5-3.2,5.4-4.5
		c1.4-0.9,3-1.7,4.6-2.4c0.7-0.3,1.5-0.1,2.3-0.1l0.1,0.1c0.1,0.1,0.1,0.1,0.2,0.2c0.3,0.5,0.9,0.9,0.9,1.4c0.1,1.5,0.1,3-0.5,4.4
		c-0.9,2-2.1,3.7-3.6,5.2c-1.4,1.5-2.9,2.9-4.4,4.3c-0.3,0.3-0.4,0.6-0.3,1c0.4,2.5,1.3,4.9,2.1,7.3c0.1,0.4,0.2,0.8,0.1,1.2
		c-0.2,1.2-0.5,2.5-0.7,3.7c0,0.2,0.1,0.4,0.1,0.6c0.5,1.1,1,2.2,1.4,3.3c0.1,0.4,0.1,0.8,0.2,1.2c0.1,0.6-0.4,0.9-0.7,1.2
		c-0.2,0.3-0.3,0.5-0.2,0.9c0.2,1.4,0.5,2.9,0.6,4.3c0.1,1,0.2,2.1,0.2,3.1c0,0.2,0,0.5-0.2,0.6c-0.6,0.8-1.2,1.5-1.8,2.3
		C198.7,91.2,198.6,91.2,198.6,91.3z M202.5,48.1c-0.4,0.1-0.8,0-1,0.2c-1.1,0.7-2.2,1.4-3.2,2.3c-1.5,1.4-2.9,3-4.3,4.5
		c-0.2,0.2-0.6,0.5-0.3,0.8c0.2,0.1,0.6,0.1,0.9,0c0.4-0.1,0.6-0.1,0.8,0.4c0.2,0.7,0.5,1.4,0.8,2c0.2,0.4,0.4,0.6,0.8,0.3
		c0.7-0.6,1.5-1.1,2.1-1.8c1.8-2.2,3.1-4.8,4.2-7.5C203.9,48.1,203.6,48.1,202.5,48.1z M196.3,70.1c-0.1-0.5-0.1-0.9-0.2-1.3
		c0-0.1-0.2-0.3-0.3-0.3s-0.3,0.1-0.3,0.2c-0.6,1.3-1.2,2.6-1.7,4c-0.5,1.2-0.4,2.4,0.2,3.6c0.7,1.5,1.3,3.1,2.1,4.6
		c0.4,0.8,1,1.6,1.5,2.4c0.1,0.1,0.3,0.2,0.4,0.3c0.1-0.2,0.2-0.3,0.2-0.5c-0.1-1.8-0.6-3.4-1.6-4.9c-1.2-1.7-1.6-3.5-0.8-5.5
		C195.9,71.9,196.1,70.9,196.3,70.1z"/>
	<path class="st0" d="M217.4,72.8c0.4,0.9,0.8,1.8,1.3,2.6c1.6,2.8,4,4.4,7.2,5.1c2.1,0.5,4.1,0.1,6.1-0.3c0.6-0.1,1.1-0.2,1.8-0.3
		c-0.8-0.9-1.6-1.7-2.4-2.5c-1.6-1.6-3.4-3.1-5.5-4c-1.1-0.5-2.3-0.8-3.6-0.9c-0.2,0-0.4-0.1-0.5-0.3c-1.1-1.8-2.2-3.6-3.3-5.4
		c-0.3-0.5-0.2-1.7,0.2-2.2c0.3-0.4,0.5-0.7,0.8-1.1c0.2-0.2,0.3-0.3,0.5-0.1c0.8,0.8,1.6,1.5,2.4,2.3c0.5,0.5,0.6,0.5,1.2,0
		c1.5-1.3,2.7-3,3.8-4.7c0.2-0.2,0.3-0.4,0.4-0.7c0.5-1.2,1.5-1.6,2.6-2c1.2-0.5,2.4-0.7,3.7-0.6c0.8,0,1.6,0.1,2.4,0
		c1.2-0.2,2.1,0.4,2.9,1.2c1,1,1.8,2.1,2.1,3.5c0.2,0.9,0.1,1.8,0.1,2.7c0,0.1-0.1,0.2-0.2,0.3c-0.4,0.4-0.7,0.7-1.1,1.1
		c-0.7,0.6-1.3,0.8-2.1,0.4c-1-0.4-1.8-1.2-2.4-2.1c-0.4-0.6-0.7-1.3-1-1.9c-0.1-0.2-0.3-0.3-0.4-0.4c-0.4-0.2-0.9-0.3-1.3-0.5
		c-1.5-0.8-2.7-0.1-3.6,1c-1,1.2-1.5,2.6-1.9,4.1c-0.2,0.8-0.4,1.5-0.5,2.3c0,0.2,0.1,0.4,0.2,0.5c2.7,2.2,5.4,4.3,8,6.5
		c1.1,0.9,2.1,2,3.1,3c0.8,0.8,0.7,2.2-0.1,3.1c-0.6,0.7-1.4,1.1-2.3,1.3c-3.7,1-7.5,1.1-11.3,1.1c-2.3,0-4.2-1.1-5.6-2.9
		c-1.5-1.8-2.4-3.8-3-6.1c0,0,0,0,0-0.1c-0.6-1-0.1-1.7,0.5-2.4C216.9,73.4,217.2,73.2,217.4,72.8z"/>
	<path class="st0" d="M130.2,79c0.9,0.6,0.7,1.3,0.5,2c-0.7,2.8-1.4,5.6-2.1,8.3c-0.2,0.9-0.6,1.7-0.8,2.6c-0.1,0.2-0.2,0.4-0.3,0.6
		c-0.7,1.2-1.2,1.3-2.2,0.4c-0.7-0.6-1.2-1.4-1.8-2.2c-0.6-0.9-0.5-1.8-0.2-2.8c0.5-2.1,1-4.2,1.4-6.3c0.4-2.2,0.8-4.5,1.1-6.7
		c0.1-0.8,0.3-1.5,0.3-2.3c0-0.5,0-1-0.1-1.4c-0.3-0.9-0.4-1.7-0.3-2.6c0-0.7,0-1.4,0-2.1c0-0.3,0.1-0.5,0.4-0.4c0.2,0,0.5,0,0.7,0
		c1.2-0.1,1.7,0.4,2.1,1.4c0.5,1.4,0.9,3,1.3,4.5c0.4,1.6,0.7,3.2,1,4.9c0.1,0.3,0.1,0.6,0.2,0.9C131.5,78.6,131.2,78.9,130.2,79z
		 M127.9,76.9c0,0.6,0,1.1,0,1.7c0,0.1,0.1,0.2,0.2,0.3c0.1-0.1,0.2-0.2,0.2-0.3c0-1.1,0-2.2,0-3.3c0-0.1-0.1-0.2-0.2-0.3
		c-0.1,0.1-0.2,0.2-0.2,0.3C127.9,75.8,127.9,76.4,127.9,76.9z"/>
	<path class="st0" d="M129,116.7c-0.1,0.1-0.2,0.2-0.3,0.3c-1.2,1.4-2.7,1.8-4.5,1.3c-1.7-0.5-2.6-1.7-3-3.4c-0.2-1-0.1-2,0.1-3
		c0.6-2.1,2-3.5,4.2-4s4.5-0.2,6.7,0.1c-0.2,5-0.4,9.9-0.6,14.8c-0.9,0-1.9,0-2.8,0c0.1-2.1,0.2-4.1,0.4-6.2
		C129.1,116.8,129,116.7,129,116.7z M129.3,111.2L129.3,111.2c0-0.3,0-0.6,0-0.9c0-0.1-0.2-0.4-0.3-0.4c-3-0.6-5.3,1-5,4.3
		c0.1,1,0.5,1.8,1.5,2.1c0.9,0.3,1.8,0.1,2.5-0.5c0.6-0.5,0.9-1.2,1.1-2C129.1,112.9,129.2,112.1,129.3,111.2z"/>
	<path class="st0" d="M237.1,118.3c0-0.6,0-1.1,0-1.7c-0.2,0.2-0.3,0.3-0.4,0.4c-1.3,1.5-2.9,1.8-4.7,1.3s-2.7-1.7-3-3.5
		c-0.2-1-0.1-1.9,0.2-2.9c0.8-2.7,2.7-4.2,5.7-4.2c0.8,0,1.6,0.1,2.5,0.1c0-1.1,0-2.2,0-3.3c1,0,1.9,0,2.9,0
		c-0.2,4.6-0.4,9.1-0.6,13.7C238.9,118.3,238,118.3,237.1,118.3z M237.3,111.3L237.3,111.3c-0.1-0.3-0.1-0.6,0-0.8
		c0.1-0.5-0.1-0.7-0.6-0.8c-3-0.6-5.1,1.3-4.9,4.3c0.1,1.6,1.3,2.6,2.8,2.4c1.3-0.2,2-1,2.3-2.2
		C237.1,113.3,237.2,112.3,237.3,111.3z"/>
	<path class="st0" d="M72.7,32.6c0,0.8,0,1.6,0,2.3c0,0.3,0.1,0.6,0.2,0.9c0,0.1,0.1,0.2,0.1,0.3c0,0.7,0.3,1.2,0.8,1.7
		c0.4,0.3,1.3,0.5,1.7,0.2c0.2-0.1,0.4-0.2,0.6-0.3c0.2-0.1,0.5-0.1,0.6-0.3c0.3-0.2,0.9-0.2,1.2,0c0.4,0.2,0.8,0.5,1.2,0.6
		c0.4,0.1,0.5,0.4,0.2,0.7c-0.5,0.7-1.2,1-2.1,0.9c-0.6-0.1-1.2,0.1-1.8-0.3c-0.1,0-0.2,0-0.3,0c-0.4,0.4-1,0.3-1.4,0.2
		c-0.8-0.1-1.4,0.4-1.9,0.9c-0.4,0.5-0.1,1.8,0.5,2s1.2,0.3,1.7,0.4c0.2,0,0.3,0,0.4,0.1c0.3,0.2,0.6,0.1,0.9,0c0.4-0.1,0.8,0,1.2,0
		c0.3,0,0.6,0.1,0.8,0c0.4-0.1,0.8-0.2,1.2,0.1c0.2,0.1,0.4,0.2,0.6,0.2c0.7,0,1,0.5,0.7,1.2c-0.1,0.2-0.2,0.4-0.3,0.6
		c-0.3,0.4-0.7,0.6-1.2,0.5c-1.1-0.1-2.1-0.2-3.2-0.3c-0.8,0-1.6,0-2.4,0c-0.7,0-1.1-0.3-1.6-0.7c-0.3-0.4-0.8-0.6-1.1-1
		c-0.2-0.2-0.4-0.5-0.4-0.7c0-1.2-0.5-2.1-1.4-2.9c-0.1-0.1-0.2-0.4-0.2-0.4c0.4-0.5,0.3-1,0.3-1.6c0-0.3-0.1-0.7,0.3-0.9l0.1-0.1
		c-0.1-1,0.6-1.7,0.4-2.8c-0.1-0.7-0.1-1.5,0.1-2.3c0.2-0.7,0.5-1.4,0.9-1.9c0.3-0.4,0.8-0.8,1.4-0.6c0.2,0,0.3,0.2,0.4,0.4
		c0.1,0.3,0.2,0.6,0.3,1c0,0.1,0.1,0.3,0.1,0.5C72.6,31.8,72.6,32.2,72.7,32.6C72.6,32.6,72.7,32.6,72.7,32.6z"/>
	<path class="st0" d="M251.7,89.2c-0.6,0-1.1,0-1.6,0c-0.1,0-0.3-0.1-0.4-0.2c-0.4-0.5-0.9-1.1-1.3-1.6c-0.1-0.1-0.1-0.3-0.2-0.5
		c0-0.9,0-1.8,0-2.7c0-0.5,0.2-0.9,0.4-1.4c1.5-5,3.1-9.9,4.6-14.9c0.1-0.3,0.2-0.5,0.6-0.4c0,0,0,0,0.1,0c1.5,0,1.6,0,1.3,1.5
		c-0.1,0.6-0.2,1,0,1.7c0.2,0.6-0.1,1.3-0.2,1.9c-0.2,1.3-0.5,2.6-0.8,3.9c-0.5,2.5-1,5-1.5,7.6C252.3,85.8,252,87.5,251.7,89.2z"/>
	<path class="st0" d="M24.4,30.8C24.4,30.9,24.4,30.9,24.4,30.8c-0.7,0.9-0.6,1.8-0.5,2.7c0.1,1,0.2,1.9,0.4,2.8
		c0.2,1-0.1,1.9-0.5,2.8c-0.2,0.5-0.2,0.9,0,1.3c0.1,0.3,0.1,0.6,0,0.9c-0.3,0.8-0.3,1.5,0.1,2.3c0.1,0.1,0.1,0.3,0.1,0.5
		c-0.1,1,0,2-0.2,3c-0.2,0.9,0,1.8,0,2.7c0,1.7,0,3.4,0,5.1c0,0.3-0.3,0.7-0.4,1c0,0.1-0.3,0.1-0.4,0.1s-0.2-0.2-0.2-0.3
		c0-1-0.2-2.1,0.1-3c0.4-1.8,0.3-3.6,0.2-5.4c-0.1-2.3,0.1-4.6,0.1-6.8c0-0.7-0.1-1.3-0.1-2c0-0.4-0.5-1-0.9-1.1s-0.9-0.1-1,0.3
		c-0.3,0.9-1.2,1.6-1,2.8c0.2,1.5,0.1,3,0.1,4.5c0,0.3-0.1,0.5-0.2,0.8c-0.2,0.3-0.2,0.6,0.1,0.9c0.3,0.3,0.3,0.6,0,0.9
		C20.1,47.8,20,48,20,48.2c0,0.3,0,0.6,0,0.8c0,1.5,0,1.5-0.8,2.7c-0.1,0.1-0.4,0.2-0.5,0.1c-0.7-0.4-1.1-0.8-1.1-1.7
		c0.1-1.1,0-2.1,0-3.2c0-0.2,0.1-0.4,0.2-0.6s0.2-0.4,0.2-0.6c0-0.8,0-1.7,0-2.5c0-0.2,0-0.4,0.1-0.5c0.3-0.4,0.4-0.8,0.3-1.2
		c0-0.1,0-0.2,0-0.2c0.6-0.4,0.3-1,0.4-1.6c0-0.4,0-0.7,0-1.1c0-0.3-0.1-0.7,0.3-0.9c0,0,0.1-0.1,0.1-0.2c-0.1-0.7,0.3-1.2,0.4-1.8
		c0.1-0.2,0.2-0.3,0.2-0.4c0.4-0.7,0.9-1.3,1.3-2c0.5-1,1-1.9,2-2.5c0.2-0.1,0.3-0.2,0.4-0.4c0.3-0.4,0.7-0.4,1-0.1
		C24.1,30.7,24.3,30.7,24.4,30.8z"/>
	<path class="st0" d="M171.9,75.5c0.3,0.2,0.6,0.4,0.9,0.4c0.4,0.1,0.6,0.3,0.7,0.7l0,0c0.2,0.3,0.6,0.8,0.5,1
		c-0.3,0.6-0.8,1.2-1.3,1.8c-0.2,0.3-0.4,0.5-0.4,0.8c0.1,2.2,0.2,4.3,0.3,6.5c0,0.1,0,0.2,0.2,0.3c0.1-0.2,0.3-0.4,0.3-0.6
		c0.1-0.3,0-0.6,0-0.9c-0.2-1.7,0.5-3.1,1.2-4.5c0.3-0.6,0.8-1.2,1.2-1.9c0.4,0.2,0.8,0.3,0.9,0.6c0.2,0.6,0.3,1.3,0.2,1.9
		c-0.8,3.7-1.6,7.4-2.5,11c-0.1,0.6-0.5,1.1-0.7,1.6c-0.4,0.8-1.4,0.8-2,0.2c-1.3-1.4-1.4-3-1.2-4.7c0.1-0.8,0.2-1.6,0.2-2.4
		c0.2-2.2,0.5-4.3,0.7-6.5c0.1-0.5,0.1-1,0.2-1.5c0-0.1,0-0.3,0-0.4c-0.6-1.1-0.3-2,0.4-2.9C172,76.1,171.9,75.8,171.9,75.5z"/>
	<path class="st0" d="M179.6,108.1c1,0,1.9,0,2.9,0c0.8,2.6,1.5,5.2,2.3,7.9c0-0.1,0.1-0.2,0.1-0.3c1-2.4,1.9-4.9,2.9-7.3
		c0.1-0.1,0.3-0.3,0.4-0.3c0.8,0,1.6,0,2.5,0c-0.1,0.2-0.2,0.4-0.2,0.6c-1.7,3.9-3.6,7.8-5.2,11.8c-1.2,2.9-3.6,3.1-5.9,2.6
		c-0.1,0-0.3-0.2-0.3-0.4c-0.1-0.6-0.2-1.1-0.2-1.8c0.4,0.1,0.7,0.2,1.1,0.3c1.2,0.2,1.9-0.1,2.6-1c0.6-0.8,0.8-1.6,0.4-2.6
		c-1.1-2.9-2.1-5.9-3.1-8.8C179.7,108.5,179.6,108.3,179.6,108.1z"/>
	<path class="st0" d="M155.2,108.1c1,0,1.9,0,2.9,0c0.8,2.6,1.5,5.2,2.3,7.9c0.1-0.1,0.1-0.2,0.2-0.3c1-2.4,1.9-4.9,2.9-7.3
		c0.1-0.1,0.3-0.3,0.4-0.3c0.8,0,1.6,0,2.5,0c-0.1,0.2-0.1,0.4-0.2,0.5c-1.8,3.9-3.6,7.8-5.2,11.8c-1.2,2.9-3.6,3.1-5.9,2.6
		c-0.1,0-0.3-0.2-0.3-0.3c-0.1-0.6-0.2-1.2-0.2-1.8c0.4,0.1,0.7,0.2,1.1,0.3c1.1,0.2,1.9,0,2.6-1c0.6-0.9,0.8-1.6,0.4-2.7
		c-1.1-2.9-2.1-5.8-3.1-8.8C155.3,108.4,155.3,108.3,155.2,108.1z"/>
	<path class="st0" d="M273.8,118.3c-1.1,0-2,0-2.9,0c0.2-3.4,0.4-6.8,0.6-10.2c0.9,0,1.8,0,2.8,0c0,0.5,0,1-0.1,1.5
		c0.1,0,0.1,0,0.2-0.1c1.2-1.9,4.3-2.1,6-1.3c1.2,0.5,1.7,1.4,1.6,2.6c0,2.1-0.2,4.2-0.2,6.2c0,0.4,0,0.8-0.1,1.3c-1,0-1.9,0-2.8,0
		c0.1-1.8,0.2-3.6,0.3-5.4c0-0.2,0-0.4,0-0.6c0-1.8-1.4-2.8-3.2-2.1c-1,0.4-1.6,1.1-1.8,2.1c-0.2,1.5-0.3,3.1-0.4,4.6
		C273.8,117.3,273.8,117.8,273.8,118.3z"/>
	<path class="st0" d="M209.7,74.9c0.7,0,1.4,0,2,0c0.1,0,0.3,0.2,0.3,0.3c0,1.2,0.5,2.3,1,3.3c0.8,1.8,1.7,3.5,2.6,5.2
		c0.1,0.3,0.2,0.6,0.2,0.8c0,0.8-0.1,1.7,0,2.5c0.1,1-0.3,1.7-0.9,2.5c-0.4,0.5-0.8,0.6-1.4,0.7c-1.1,0.1-1.8-0.3-2.5-1.2
		c-1-1.2-1.4-2.4-1.3-3.9c0.1-3.2,0-6.4,0-9.6C209.7,75.3,209.7,75.1,209.7,74.9z"/>
	<path class="st0" d="M191.9,108.1c1,0,2,0,2.9,0c-0.1,1.1-0.2,2.3-0.2,3.4c-0.1,0.8-0.1,1.6-0.2,2.4c0,1.4,0.4,2,1.4,2.3
		c1.2,0.3,2.5-0.1,3-1.2c0.3-0.7,0.5-1.4,0.6-2.2c0.1-1.4,0.1-2.9,0.2-4.4c0-0.1,0-0.2,0-0.4c0.9,0,1.8,0,2.8,0
		c-0.2,3.4-0.3,6.8-0.5,10.2c-0.9,0-1.7,0-2.6,0c0-0.5,0-1,0-1.6c-1.5,2-3.4,2.1-5.5,1.6c-1.4-0.3-2.2-1.3-2.2-2.8
		c0-1.8,0.2-3.6,0.2-5.4C191.9,109.4,191.9,108.7,191.9,108.1z"/>
	<path class="st0" d="M252.7,118.3c-0.9,0-1.7,0-2.6,0c0-0.5,0-1,0-1.6c-1.5,2-3.4,2.1-5.5,1.6c-1.4-0.3-2.2-1.3-2.1-2.8
		c0-1.8,0.2-3.6,0.2-5.4c0-0.7,0-1.3,0-2c1,0,2,0,2.9,0c-0.1,1.1-0.2,2.3-0.2,3.4c-0.1,0.8-0.1,1.6-0.2,2.4c0,1.4,0.4,2,1.4,2.3
		c1.2,0.3,2.5-0.1,3-1.2c0.3-0.7,0.5-1.4,0.6-2.2c0.1-1.4,0.1-2.9,0.2-4.4c0-0.1,0-0.2,0-0.4c0.9,0,1.8,0,2.8,0
		C253,111.5,252.9,114.9,252.7,118.3z"/>
	<path class="st0" d="M227.6,113.1c-2.5,0-4.9,0-7.3,0c-0.5,1.9,0.9,3.6,2.9,3.6c1,0,2.1-0.3,3.1-0.4c0.2,0,0.3-0.1,0.5-0.1
		c-0.1,0.6-0.2,1.2-0.3,1.8c0,0.1-0.2,0.2-0.3,0.2c-1.8,0.4-3.5,0.5-5.3,0.1c-2.1-0.5-3.4-2.2-3.5-4.5c0-0.9,0.1-1.9,0.4-2.7
		c0.7-2.1,2.4-3.2,4.8-3.3c0.7,0,1.4,0.1,2.1,0.2C226.9,108.5,228.3,110.9,227.6,113.1z M225,112c0.2-1.4-0.5-2.4-1.8-2.5
		c-1.5-0.1-2.8,1-2.9,2.5C221.9,112,223.4,112,225,112z"/>
	<path class="st0" d="M144.1,108c1.1,0,2.1,0,3.1,0c0.1,0,0.3,0.2,0.4,0.3c0.5,0.8,1.1,1.5,1.6,2.3c0.6-0.8,1.3-1.5,1.8-2.3
		c0.3-0.3,0.5-0.5,1-0.4c0.8,0,1.6,0,2.5,0c-1.3,1.6-2.6,3.2-3.9,4.8c1.2,1.8,2.5,3.6,3.8,5.4c-1.1,0-2.1,0-3.1,0
		c-0.1,0-0.3-0.2-0.4-0.3c-0.7-0.9-1.3-1.9-2-2.9c-0.7,0.8-1.4,1.6-1.9,2.4c-0.4,0.7-1,0.9-1.7,0.8c-0.7-0.1-1.4,0-2.1,0
		c0.2-0.2,0.3-0.4,0.4-0.5c1.2-1.5,2.4-3,3.7-4.5c0.2-0.2,0.2-0.4,0-0.7C146.2,111.1,145.2,109.6,144.1,108z"/>
	<path class="st0" d="M51.5,34c0,0.4,0,0.8,0,1.2c0.1,0.3,0.3,0.6,0.3,1c0,0.3-0.3,0.6-0.3,0.9c0,0.7,0.1,1.3-0.4,1.9
		c-0.6,0.6-1.1,1.4-2.1,1.3c-0.6,0-1.2,0.1-1.8-0.3c-0.2-0.1-0.5-0.1-0.8-0.1s-0.4-0.1-0.6-0.4c-0.4-0.6-0.3-1.3-0.4-2
		c-0.1-0.6-0.5-1.2-0.7-1.9c-0.1-0.4-0.1-0.8-0.1-1.1c0-0.3-0.2-0.5-0.3-0.7c0-0.1-0.2-0.3-0.1-0.4c0.4-0.7,0.7-1.4,1.2-2.1
		c0.2-0.3,0.6-0.5,1-0.6c0.6-0.2,1.2-0.7,1.9-0.5c0.3,0.1,0.6,0.2,1,0.3c0.1,0,0.2,0.1,0.3,0.1c0.4,0.2,0.9,0.3,1.3,0.5l0.1,0.1
		c0.2,0.6,0.3,1.2,0.4,1.9C51.6,33.3,51.5,33.6,51.5,34L51.5,34z"/>
	<path class="st0" d="M277.4,44.6c-0.4-0.1-0.9-0.1-1.2-0.2c0,0.2,0,0.5,0,0.7c-0.1,0.2-0.3,0.4-0.5,0.6c-0.5,0.5-1,1-1.6,1.5
		c-0.8,0.7-1.6,1.4-2.5,2c-0.7,0.5-1.5,0.9-2.4,1.3c-0.7,0.3-1.5,0.5-2.4,0.2c-0.5-0.2-1.1-0.2-1.6-0.4c-0.2-0.1-0.4-0.3-0.5-0.4
		c-0.1-0.5,0-1,0.3-1.4c1-1.6,2.4-2.9,3.9-4c0.6-0.4,1.1-0.9,1.7-1.4c0.5-0.4,1-0.4,1.6-0.3c0.8,0.1,1.6,0.2,2.3,0.3
		c0.2,0,0.5,0.1,0.6,0.3c0.4,0.7,0.9,0.8,1.6,0.7C277.1,44.1,277.3,44.3,277.4,44.6z"/>
	<path class="st0" d="M139.4,110c-1.6,0-3.2,0-4.8,0c0-0.6,0.1-1.3,0.1-2c2.7,0,5.3,0,7.9,0c0,0.8,0,1.5,0,2.3
		c0,0.1-0.2,0.3-0.3,0.4c-1.6,1.8-3.2,3.5-4.8,5.3c-0.1,0.1-0.1,0.2-0.3,0.3c1.7,0,3.4,0,5.1,0c0,0.6-0.1,1.3-0.1,1.9
		c-2.7,0-5.4,0-8.2,0c0-0.7,0-1.3,0-2c0-0.2,0.2-0.3,0.3-0.5c1.7-1.8,3.3-3.7,5-5.5C139.3,110.2,139.3,110.2,139.4,110z"/>
	<path class="st0" d="M93.7,45.2c-1.3,0.1-2.5,0.2-3.8,0.3c-0.3,0-0.6-0.1-0.9-0.1s-0.6,0-0.8,0.1c-0.9,0.4-1.8,0.2-2.2-0.6
		c-0.1-0.2-0.1-0.6-0.1-0.9c0.1-0.4,1-1,1.4-1c1.1,0,2.2-0.1,3.3,0c0.7,0,1.2-0.4,1.8-0.6c0.1,0,0.1-0.1,0.2-0.1
		c0.7-0.1,0.7-0.6,0.7-1.1c0-0.7-0.4-1.1-1.1-1.1c-0.1,0-0.2,0-0.3,0c-0.8-0.7-1.8-0.4-2.6-0.3c-1,0.1-1.8-0.3-2.4-0.9
		c-0.2-0.2-0.2-0.5-0.1-0.8c0-0.1,0.3-0.3,0.5-0.3c0.6,0,1.2-0.2,1.7,0.3c0.1,0.1,0.4,0.1,0.5,0c0.3-0.5,0.8-0.3,1.2-0.3
		c0.2,0,0.4,0,0.6,0c0.6,0,1.1,0,1.5-0.6c0.3-0.4,0.6-0.4,0.9,0s0.6,0.7,0.8,1.1c0.5,0.8,0.7,1.7,1.5,2.4c0.3,0.3,0.3,0.8,0.5,1.2
		c0.2,0.4,0.4,0.8,0.5,1.2c0.1,0.3,0.3,0.7,0.3,1.1c0,0.2-0.2,0.4-0.3,0.6c-0.4,0.6-0.9,0.7-1.6,0.7C94.7,45.3,94.2,45.3,93.7,45.2
		C93.7,45.3,93.7,45.3,93.7,45.2z"/>
	<path class="st0" d="M41.3,33.2c0.1,0.4,0.3,0.9,0.3,1.3c0,0.6,0,1.3,0,1.9c0,0.4-0.1,0.7-0.2,1.1c-0.1,0.9-0.4,1.8-1.2,2.3
		c-0.5,0.3-1,0.7-1.7,0.5C38.2,40.2,38,40,37.7,40c-0.6,0-0.9-0.4-1.2-0.8c-0.2-0.3-0.5-0.7-0.6-1.1c-0.2-0.8-0.3-1.6-0.5-2.4
		c0-0.2-0.1-0.4-0.2-0.6c-0.1-0.2-0.2-0.3-0.2-0.5c0-1-0.1-2.1,0-3.1c0-0.3,0.3-0.6,0.6-0.8c0.1-0.1,0.4,0.1,0.6,0.2
		c0.5,0.2,1,0.4,1.5,0.5c0.1,0,0.2,0,0.3-0.1c0.6-0.6,1.4-0.3,2.2-0.3c0.5,0,1.2,0.9,1.3,1.6C41.4,32.8,41.4,33,41.3,33.2L41.3,33.2
		z"/>
	<path class="st0" d="M176.5,105.6c0,0.8,0,1.6,0,2.4c0.8,0,1.6,0,2.5,0c0,0.7-0.1,1.3-0.1,2.1c-0.8,0-1.7,0-2.6,0
		c0,0.7-0.1,1.2-0.1,1.8c0,1-0.1,1.9-0.1,2.9c0,1.5,0.6,1.9,2,1.6c0.2,0,0.4-0.1,0.7-0.2c-0.1,0.7-0.2,1.3-0.4,1.9
		c0,0.1-0.2,0.2-0.3,0.2c-1,0.2-2.1,0.3-3.1,0.1c-1.1-0.2-1.7-0.9-1.7-2c0-1.3,0.1-2.6,0.1-3.9c0-0.8,0.1-1.6,0.1-2.4
		c-0.5,0-0.9,0-1.4,0c0-0.7,0-1.4,0-2.1c0.5,0,1,0,1.6,0c0-0.6,0.1-1.1,0.1-1.6c0-0.3,0.1-0.4,0.4-0.5
		C175,105.9,175.8,105.7,176.5,105.6z"/>
	<path class="st0" d="M205.6,110.1c-0.5,0-0.9,0-1.4,0c0-0.7,0-1.4,0-2.1c0.5,0,1,0,1.5,0c0-0.5,0.1-1,0.1-1.6
		c0-0.3,0.1-0.5,0.4-0.5c0.7-0.1,1.4-0.3,2.2-0.4c0,0.8,0,1.6,0,2.4c0.8,0,1.7,0,2.5,0c0,0.7-0.1,1.4-0.1,2.1c-0.9,0-1.7,0-2.6,0
		c0,0.6-0.1,1.1-0.1,1.6c0,1-0.1,2.1-0.1,3.1c0,1.4,0.6,1.9,2,1.6c0.2,0,0.4-0.1,0.8-0.2c-0.1,0.7-0.2,1.3-0.4,1.9
		c0,0.1-0.2,0.2-0.3,0.2c-1,0.2-2,0.3-3,0.1c-1.2-0.2-1.9-0.9-1.8-2.1c0-1.9,0.2-3.8,0.3-5.7C205.5,110.5,205.6,110.4,205.6,110.1z"
		/>
	<path class="st0" d="M269.1,110.2c-0.6-0.1-1.2-0.3-1.7-0.4c-1.4-0.2-2.7-0.1-3.4,1.2c-0.8,1.3-0.9,2.8-0.2,4.2
		c0.5,1,1.9,1.4,3.2,1.2c0.6-0.1,1.1-0.2,1.8-0.4c-0.1,0.7-0.2,1.4-0.4,2c0,0.1-0.2,0.2-0.3,0.2c-1.3,0.2-2.7,0.4-4,0.1
		c-1.9-0.4-3.1-1.6-3.5-3.6c-0.3-1.3-0.1-2.7,0.3-3.9c0.8-2.1,2.4-3,4.5-3c1.1,0,2.2,0.2,3.2,0.4c0.1,0,0.3,0.3,0.4,0.4
		C269,109.1,269,109.6,269.1,110.2z"/>
	<path class="st0" d="M175.7,56.2c-0.9,0.1-1.4-0.4-1.6-1.1c-0.3-1.1-0.6-2.2-0.8-3.4c-0.2-1.3-0.3-2.6-0.5-4
		c-0.2-0.9,0.1-1.5,0.7-2c0.3-0.2,0.9-0.2,1.2,0c0.9,0.4,1.5,1.3,2.1,2.1c0.8,1.1,1.5,2.3,2.2,3.5c0.1,0.2,0.2,0.4,0.1,0.6
		c-0.4,1.5-1.1,2.9-2.4,3.9C176.4,56,176,56.1,175.7,56.2C175.7,56.3,175.7,56.3,175.7,56.2z"/>
	<path class="st0" d="M54.4,35.9c0.1-0.5,0.3-1,0.4-1.6c0-0.2,0.1-0.3,0.1-0.5c0-0.8,0.2-1.5,0.7-2.2c0.1-0.1,0.1-0.2,0.1-0.3
		c0-0.1,0-0.3,0.1-0.3c0.4-0.2,0.8-0.4,1.2-0.5s0.8-0.1,1.3,0.2c0.4,0.2,0.5,0.5,0.6,0.9c0.1,0.5,0.1,0.8,0,1.2
		c-0.1,0.4,0.3,0.9,0.5,1.4c0,0.1,0.1,0.1,0.1,0.2c0.1,1.1,0.8,2.1,0.5,3.3c-0.1,0.4-0.4,0.7-0.7,1c-0.4,0.4-0.9,0.7-1.5,0.6
		c-0.4-0.1-0.7,0-1.1,0.3c-0.4,0.3-1.2,0-1.4-0.4c-0.4-0.7-0.8-2.5-0.9-3.4C54.4,35.9,54.4,35.9,54.4,35.9z"/>
	<path class="st0" d="M126.1,49.4c0-1.2-0.1-1.2,1-1.1c2.4,0.1,3.9,1.3,4.5,3.9c0.4,2.1-0.5,3.7-1.6,5.2c-0.6,0.9-1.7,0.6-2.1-0.4
		c-0.6-1.2-0.7-2.4-0.9-3.7c-0.1-0.8-0.2-1.6-0.3-2.5c0-0.1,0-0.2-0.1-0.3C126.1,50.3,126.1,49.8,126.1,49.4z"/>
	<path class="st0" d="M52.1,62.6c0,0.3,0.1,0.7,0,1c-0.1,0.5-0.2,1-0.4,1.4c-0.3,0.6-1.6,0.7-2.1,0.4c-0.3-0.2-0.6-0.3-0.9-0.5
		c-0.1,0-0.3-0.1-0.3,0c-0.4,0.2-0.7,0.4-1.1,0.6c-0.2,0.1-0.5,0.1-0.6,0c-0.4-0.6-0.8-1.2-1.2-1.8c-0.1-0.1,0-0.3,0.1-0.5
		s0.2-0.4,0.2-0.6c0-1.1,0.5-1.8,1.4-2.3c0.5-0.3,0.9-0.7,1.3-1c0.3-0.3,1.5-0.3,1.9,0c0.6,0.6,1.2,1.1,1.7,1.8
		C52.2,61.4,52.1,62,52.1,62.6L52.1,62.6z"/>
	<path class="st0" d="M259.8,80.7c-0.6-0.6-1.1-1.1-0.7-2c0.4-1,0.6-2,0.8-3c0-0.1,0-0.3,0-0.5c0-1.4,0-2.8,0-4.3c0.6,0,1.3,0,1.9,0
		c0.1,0,0.2,0.2,0.3,0.3c0.6,0.7,1.1,1.4,1.7,2.2c0.1,0.2,0.2,0.4,0.2,0.6c0.2,1-0.2,1.8-0.8,2.6c-1.1,1.2-2,2.5-3,3.8
		C260.1,80.4,260,80.5,259.8,80.7z"/>
	<path class="st0" d="M173.2,63.1c0.5-0.1,0.7,0.2,0.9,0.7c0.5,1.3,1.1,2.5,1.6,3.8c0.1,0.2,0,0.4,0,0.6c-0.1,0.2-0.2,0.4-0.3,0.6
		c-0.7,1.1-1,2.3-0.9,3.5c0,0.6,0.1,1.2-0.1,1.8c-0.2,0.5-0.6,1-1,1.4c0,0-0.2-0.1-0.4-0.1c-0.9-0.2-1.1-0.8-0.9-1.7
		c0.3-1.3,0.5-2.6,0.6-3.9c0.1-0.8-0.1-1.6-0.1-2.4c-0.1-1.1-0.3-2.3-0.4-3.4C172.1,63.5,172.6,63.1,173.2,63.1z"/>
	<path class="st0" d="M276.1,76.5c0.2,0.7-0.1,0.9-0.7,1.1c-0.7,0.2-1.3,0.5-2,0.8c-0.6,0.3-1,0.1-1.4-0.4c-0.6-0.7-0.7-1.6-0.8-2.4
		c0-0.7-0.1-1.3-0.2-2c0-0.5,0.1-0.8,0.4-1.2c0.9-1.3,1.4-1,2.4-0.3c0.8,0.6,1.4,1.4,1.8,2.3C275.9,75.1,276,75.8,276.1,76.5
		C276.2,76.5,276.1,76.5,276.1,76.5z"/>
	<path class="st0" d="M84.6,32.3c0-0.8,0.1-1.4-0.4-2c-0.3-0.4,0-1.1,0.4-1.4c0.3-0.2,1.1,0,1.5,0.1c1.4,0.7,2.3,2,3.4,3
		c0.1,0.1,0.2,0.1,0.2,0.2c0.2,0.8,0.4,1.6,0.5,2.4c0.1,0.3-0.1,0.6-0.6,0.6c-0.4,0-0.9,0.1-1.3-0.3c-0.2-0.2-0.6-0.1-0.9-0.1
		c-0.4,0-0.8,0.1-1-0.3c-0.1-0.1-0.3-0.1-0.4-0.1c-0.2-0.1-0.4-0.1-0.6-0.2C84.6,33.7,84.4,33,84.6,32.3z"/>
	<path class="st0" d="M276.1,64.5c0.1,1-0.3,1.7-0.9,2.4c-0.4,0.4-0.7,0.9-1.2,1.3c-0.3,0.3-0.7,0.4-1,0.6c-0.5,0.2-1.5-0.3-1.6-0.9
		c0-0.3,0.1-0.6,0.1-1c0.1-0.7,0.3-1.3,0.4-2s0.2-1.4,0.3-2.1c0.1-0.4,0.1-0.8,0.2-1.2s0.3-0.5,0.7-0.5c0.8-0.1,1.2,0.3,1.6,0.8
		c0.3,0.4,0.6,0.7,0.9,1.1C276,63.5,276.3,64,276.1,64.5z"/>
	<path class="st0" d="M264.1,80.1c0,2.1-0.9,3.8-2.4,5.2c-0.2,0.2-0.4,0.4-0.6,0.6c-0.3,0.2-0.8,0.2-1-0.1c-0.7-0.9-1.4-1.7-2-2.6
		c-0.1-0.1,0-0.4,0.1-0.5c0.7-0.6,1.3-1.2,2.1-1.7c0.6-0.4,1.2-0.7,1.7-1.3l0.1-0.1c0.3-0.8,1-0.8,1.7-0.8c0.3,0,0.4,0.1,0.4,0.4
		C264,79.6,264.1,79.8,264.1,80.1z"/>
	<path class="st0" d="M88.4,56.5c-0.2,0.6-0.3,1.1-0.5,1.7c0,0.1-0.1,0.1-0.2,0.2c-0.4,0.2-0.8,0.4-1.2,0.6c-0.5,0.3-0.8,0.3-1.3,0
		c-0.1-0.1-0.3-0.1-0.4,0c-0.5,0.3-1.6,0.3-2.1,0c-0.4-0.2-0.9-0.6-1.5-0.3c-0.5,0.3-1.1-0.1-1.3-0.6c-0.2-0.5,0-0.9,0.6-0.9
		c1.7,0,3.5-0.1,5.2,0c0.6,0,0.9-0.4,1.4-0.6c0.2-0.1,0.2-0.9,0-1.1c-0.5-0.4-0.9-1-1.5-1.1c-0.6-0.2-1.3-0.1-1.9,0
		c-0.8,0.3-1.7,0.2-2.5,0.2c-0.1,0-0.3-0.3-0.4-0.4c0.1-0.1,0.3-0.2,0.4-0.3c0.7-0.3,1.4-0.5,2.1-0.7c0.3-0.1,0.7,0,1,0.1
		c0.3,0,0.5,0.2,0.7,0.2c0.4,0,0.7,0,1.1,0c0.9,0,1.5,0.5,1.9,1.3c0.3,0.5,0.3,1,0.3,1.5C88.3,56.5,88.4,56.5,88.4,56.5z"/>
	<path class="st0" d="M83.3,51.5c-0.8,0.3-1.3-0.3-1.8-0.9c-0.1-0.1-0.1-0.5,0-0.6c0.6-0.4,1.3-0.9,2-1.2c0.3-0.2,0.7-0.2,1,0.1
		c0.3,0.4,0.8,0.5,0.8,1.1c0,0.7-0.7,1.4-1.4,1.4C83.8,51.5,83.6,51.5,83.3,51.5z"/>
	<path class="st0" d="M176.2,75.8c0.5,0,0.9,0.1,1.1,0.5c0.3,0.5,0.6,0.9,1,1.3c0.2,0.2,0.3,0.4,0,0.7c-0.3,0.2-0.4,0.6-0.7,0.8
		c-0.1,0.1-0.4,0.2-0.6,0.2c-0.4-0.3-0.8-0.6-1.1-0.9c-0.3-0.3-0.5-0.6-0.7-0.9c-0.1-0.1-0.2-0.4-0.1-0.5c0.3-0.4,0.6-0.7,0.9-1
		C176,75.9,176.2,75.9,176.2,75.8z"/>
	<path class="st0" d="M167.3,118.3c0-0.8,0-1.7,0-2.5c1,0,1.9,0,2.8,0c0,0.8-0.1,1.7-0.1,2.5C169.1,118.3,168.2,118.3,167.3,118.3z"
		/>
	<path class="st0" d="M255.5,118.3c0-0.9,0-1.7,0-2.5c1,0,1.9,0,2.8,0c0,0.8-0.1,1.7-0.1,2.5C257.2,118.3,256.3,118.3,255.5,118.3z"
		/>
	<path class="st0" d="M212.4,115.8c0.2,0,0.3,0,0.5,0c0.8,0,1.5,0,2.4,0c0,0.9-0.1,1.7-0.1,2.5c-0.9,0-1.8,0-2.7,0
		C212.4,117.5,212.4,116.6,212.4,115.8z"/>
	<path class="st0" d="M23,71.2c0.4,0.2,0.6,0.3,0.5,0.7c-0.1,0.3,0,0.7,0,1.1c0,0.2-0.1,0.3-0.2,0.5c-0.1-0.2-0.2-0.3-0.2-0.5
		C22.9,72.4,22.9,71.8,23,71.2z"/>
</g>
</svg>
